<svg width="44" height="44" viewBox="0 0 44 44" fill="none" xmlns="http://www.w3.org/2000/svg">
<path d="M22.586 7.84839C25.1303 6.94679 27.859 4.13159 25.96 0.948387C28.91 1.51879 31.6388 2.69639 34.0356 4.33399C35.0866 8.40039 32.3578 13.8836 26.9003 15.6868C22.5122 17.1404 8.27844 16.0548 2.93157 33.1116C1.06937 29.91 0 26.1932 0 22.2188C0 10.866 8.73938 1.53719 19.894 0.617188C19.9862 1.27959 19.8572 2.08919 19.0275 2.42039C18.0318 2.78839 9.82719 4.55479 9.82719 13.1844C14.1047 9.30199 18.3269 9.39399 22.586 7.84839Z" fill="#3763BA"/>
<path d="M20.8632 36.5855C18.3188 37.4871 15.59 40.3023 17.4891 43.4855C14.5391 42.9151 11.8103 41.7375 9.41347 40.0999C8.36254 36.0335 11.0913 30.5503 16.5488 28.7471C20.9369 27.2935 35.1706 28.3791 40.5175 11.3223C42.3797 14.5239 43.4491 18.2407 43.4491 22.2151C43.4491 33.5679 34.7098 42.8967 23.5551 43.8167C23.4629 43.1543 23.5919 42.3447 24.4216 42.0135C25.4173 41.6455 33.6219 39.8791 33.6219 31.2495C29.3444 35.1319 25.1222 35.0399 20.8632 36.5855Z" fill="#3763BA"/>
</svg>
