<svg width="45" height="45" viewBox="0 0 45 45" fill="none" xmlns="http://www.w3.org/2000/svg">
<path d="M15.9674 21.9419C15.6475 21.6467 15.3277 21.3514 15.0078 21.0438C13.7283 19.7643 12.4489 18.4972 11.1694 17.2054C10.9726 17.0086 10.788 16.9225 10.4928 16.9963C5.63323 18.0543 0.970546 14.9048 0.133969 9.97148C-0.0997798 8.6182 0.0109435 7.28952 0.441534 5.97314C0.699889 5.19808 1.40114 5.02584 1.97936 5.60406C3.06199 6.67439 4.13231 7.75702 5.19034 8.83965C5.38718 9.03649 5.59632 9.0857 5.86698 9.12261C6.81428 9.25794 7.56474 8.97497 8.13066 8.18761C8.30289 7.94156 8.53664 7.74472 8.77039 7.54788C9.07796 7.30183 9.13947 7.00657 9.17638 6.62518C9.2625 5.764 8.97954 5.14887 8.3275 4.58295C7.4048 3.78328 6.58053 2.88519 5.71935 2.02401C5.0304 1.33507 5.21494 0.633818 6.16224 0.363161C10.542 -0.867098 14.8971 1.22434 16.6317 5.41952C17.2961 7.01886 17.4191 8.70432 17.0377 10.4021C16.9639 10.6973 17.0254 10.9065 17.2469 11.1156C18.7601 12.6042 20.261 14.1175 21.7619 15.6184C21.848 15.7045 21.9465 15.7906 22.0572 15.9013C22.5985 15.36 23.1152 14.8433 23.6442 14.3143C24.7269 13.2317 25.8095 12.1367 26.9044 11.0541C27.1136 10.845 27.1751 10.6727 27.1136 10.3775C25.9448 4.8044 30.3122 -0.350388 35.9714 0.0186899C39.5638 0.252439 42.1596 2.09783 43.4883 5.44413C44.8416 8.85195 44.1526 12.026 41.5937 14.6588C39.4408 16.8609 36.7342 17.6114 33.6954 17.0086C33.3756 16.9471 33.1664 16.984 32.9327 17.2177C31.358 18.8171 29.7709 20.3918 28.1593 22.0157C28.2577 22.1265 28.3561 22.2249 28.4422 22.3233C29.9678 23.8488 31.4933 25.362 33.0065 26.8876C33.2033 27.0844 33.3633 27.1459 33.6462 27.0844C38.5304 26.0141 43.2177 29.2004 44.0173 34.1338C44.2388 35.4625 44.128 36.7665 43.7221 38.046C43.4514 38.8703 42.7625 39.0548 42.1473 38.452C41.0893 37.4186 40.0313 36.3852 38.9856 35.3394C38.7764 35.1303 38.5673 35.0688 38.272 35.0319C37.3247 34.8965 36.6358 35.241 35.996 35.9546C35.0364 37.0372 34.9872 36.988 35.0733 38.4274C35.0856 38.5873 35.1964 38.7719 35.3194 38.8949C36.3528 39.9529 37.3862 40.9986 38.4319 42.0567C39.1086 42.7456 38.9364 43.4222 38.026 43.7052C33.0557 45.2184 27.9009 42.0567 27.0151 36.9265C26.8183 35.8069 26.8552 34.6997 27.1136 33.5925C27.1505 33.4325 27.1013 33.1742 27.0028 33.0635C25.4158 31.4518 23.8042 29.8525 22.2048 28.2408C22.1679 28.2039 22.1187 28.1793 22.0203 28.1055C21.5774 28.5607 21.1468 29.0159 20.7039 29.4588C19.5598 30.6029 18.4156 31.7594 17.2592 32.8912C17.0377 33.1127 16.9762 33.3095 17.0377 33.6048C18.3418 39.7192 13.1132 45.1077 6.98651 43.8897C3.71402 43.2377 1.49956 41.2324 0.46614 38.0706C-0.518068 35.0442 0.0601539 32.2269 2.1639 29.8279C4.36606 27.3181 7.18336 26.4201 10.4682 27.0352C10.6404 27.0721 10.8864 27.0352 10.9972 26.9245C12.6211 25.3251 14.2327 23.7135 15.8444 22.1018C15.8813 22.0772 15.8936 22.0403 15.9674 21.9419ZM36.1437 42.3027C36.1806 42.2535 36.2175 42.2043 36.2421 42.1551C35.4178 41.3554 34.5935 40.5557 33.7693 39.7684C33.474 39.4854 33.3264 39.1532 33.3387 38.735C33.3633 38.0583 33.3018 37.3817 33.3633 36.7173C33.3879 36.4098 33.5232 36.0653 33.7201 35.8438C34.409 35.0934 35.1348 34.3675 35.8853 33.6909C36.1068 33.4941 36.4635 33.3587 36.7588 33.3341C37.4231 33.2849 38.1121 33.3341 38.7764 33.3095C39.1947 33.2972 39.5146 33.4448 39.8098 33.7401C40.5357 34.4783 41.2738 35.1918 42.012 35.9177C42.0981 36.0038 42.1965 36.0653 42.2827 36.1514C42.3196 36.1391 42.3565 36.1268 42.4057 36.1145C42.3688 35.5117 42.3934 34.8842 42.2704 34.2937C41.483 30.1846 37.62 27.7856 33.5724 28.8806C32.9819 29.0405 32.5759 28.9175 32.1453 28.4992C26.6461 22.9753 21.1345 17.4761 15.6229 11.9645C15.5491 11.8907 15.4753 11.8169 15.4138 11.7554C15.1554 11.4847 15.0693 11.1771 15.1677 10.8081C15.2785 10.3529 15.3892 9.88537 15.463 9.41787C16.0535 5.2842 12.412 1.42118 8.24138 1.75335C8.15526 1.76566 8.06914 1.79026 7.98303 1.81487C8.67197 2.51611 9.2994 3.22967 10.0007 3.8571C10.665 4.43532 10.9849 5.07505 10.8741 5.96084C10.8126 6.42834 10.8987 6.90814 10.8495 7.37564C10.8126 7.6709 10.7019 8.00307 10.5051 8.21221C9.7792 8.99958 9.01644 9.76234 8.21677 10.4882C8.00763 10.685 7.66316 10.8081 7.3802 10.8327C6.69125 10.8819 6.00231 10.8327 5.31336 10.8573C4.90738 10.8696 4.59981 10.7219 4.31685 10.439C3.591 9.70083 2.86515 8.96267 2.13929 8.23682C2.04087 8.1384 1.94245 8.05228 1.80712 7.92926C1.78252 8.03998 1.75791 8.08919 1.75791 8.1384C1.65949 9.63932 1.97936 11.0541 2.82824 12.309C4.61211 14.9786 7.51553 16.049 10.5912 15.2001C11.0956 15.0648 11.4893 15.1263 11.8706 15.5077C17.4314 21.0807 23.0045 26.6538 28.5899 32.2146C28.959 32.5837 29.0451 32.965 28.922 33.4571C28.7867 33.9862 28.6514 34.5152 28.6268 35.0565C28.4791 37.9599 30.0293 40.5188 32.662 41.7368C33.7816 42.2412 34.938 42.4257 36.1437 42.3027ZM17.1116 23.2214C15.3646 24.993 13.6053 26.7399 11.8706 28.5238C11.4893 28.9052 11.1079 29.0036 10.5912 28.8683C10.0376 28.7329 9.47164 28.5976 8.90572 28.5853C4.59981 28.45 1.29041 32.1162 1.83173 36.3852C2.38534 40.6665 6.81428 43.3976 10.8864 41.9705C14.3681 40.7526 16.2381 37.1848 15.2416 33.5679C15.0693 32.9281 15.18 32.4852 15.6475 32.03C17.2838 30.443 18.8831 28.8068 20.4948 27.1951C20.6055 27.0844 20.7039 26.9737 20.7777 26.8876C19.5598 25.6696 18.3664 24.4762 17.1116 23.2214ZM23.3367 17.0701C24.5546 18.288 25.7603 19.4937 27.0151 20.7486C27.089 20.6624 27.1751 20.5271 27.2858 20.4164C28.8728 18.8294 30.4722 17.2669 32.0223 15.6553C32.5267 15.1386 32.9942 15.0032 33.7077 15.2001C36.0945 15.8521 38.2474 15.3108 40.1051 13.6869C42.4918 11.5831 43.0946 7.97847 41.5199 5.24729C39.8467 2.33158 36.4512 1.0029 33.3633 2.04862C29.8693 3.22967 27.9378 6.77281 28.8851 10.3283C29.0697 11.0049 28.9466 11.4847 28.4299 11.9768C26.806 13.5515 25.219 15.1755 23.6196 16.7748C23.5089 16.8855 23.3982 17.0086 23.3367 17.0701Z" fill="#3763BA"/>
<path d="M28.4445 27.4175C28.2354 27.7005 28.1001 28.008 27.8663 28.1188C27.6326 28.2295 27.3004 28.168 27.0297 28.1065C26.8821 28.0696 26.7591 27.9096 26.6361 27.7866C23.1913 24.3542 19.7466 20.9094 16.3142 17.477C16.1912 17.354 16.0681 17.231 15.982 17.0833C15.7729 16.7635 15.8221 16.3206 16.0804 16.0499C16.3511 15.767 16.8063 15.7054 17.1385 15.9269C17.2861 16.013 17.4091 16.136 17.5321 16.2591C20.9769 19.6915 24.4216 23.1362 27.854 26.5809C28.0632 26.8024 28.2231 27.0977 28.4445 27.4175Z" fill="#3763BA"/>
<path d="M30.765 29.8657C30.7527 30.3209 30.3344 30.7145 29.8915 30.7022C29.4364 30.6899 29.0427 30.284 29.055 29.8288C29.0673 29.3613 29.461 28.9922 29.9161 28.9922C30.3836 29.0045 30.765 29.4105 30.765 29.8657Z" fill="#3763BA"/>
<path d="M14.2557 15.0532C13.8005 15.0532 13.3945 14.6718 13.3945 14.2167C13.3945 13.7738 13.7882 13.3555 14.2434 13.3555C14.6986 13.3555 15.0923 13.7492 15.1046 14.2044C15.1046 14.6595 14.7232 15.0532 14.2557 15.0532Z" fill="#3763BA"/>
<path d="M8.62121 31.1563C10.9833 31.144 12.9148 33.0632 12.9394 35.4376C12.964 37.7874 11.0325 39.7312 8.65811 39.7558C6.30832 39.7804 4.36451 37.8366 4.3399 35.4745C4.3276 33.1124 6.25911 31.1686 8.62121 31.1563ZM8.63351 32.8787C7.21871 32.891 6.06227 34.0597 6.06227 35.4622C6.07457 36.8647 7.25562 38.0458 8.65811 38.0335C10.0606 38.0212 11.2294 36.8401 11.2294 35.4376C11.2171 34.0351 10.036 32.8664 8.63351 32.8787Z" fill="#3763BA"/>
<path d="M35.5045 12.9003C33.1301 12.9003 31.2109 10.9811 31.2109 8.60669C31.2109 6.23229 33.1424 4.30078 35.5045 4.30078C37.8543 4.30078 39.8105 6.25689 39.8105 8.60669C39.7981 10.9565 37.8543 12.888 35.5045 12.9003ZM32.921 8.59439C32.921 10.0092 34.0774 11.1656 35.4799 11.1656C36.8824 11.1656 38.0512 10.0092 38.0758 8.60669C38.1004 7.20419 36.8947 5.99854 35.4799 6.01084C34.0774 6.02315 32.921 7.19189 32.921 8.59439Z" fill="#3763BA"/>
</svg>
