<svg width="48" height="48" viewBox="0 0 48 48" fill="none" xmlns="http://www.w3.org/2000/svg">
<path d="M42.3716 33.3676L42.3724 33.3676C43.2823 33.3553 44.1798 33.3553 45.0896 33.3676L45.0896 33.3676H45.0905C45.2139 33.3676 45.304 33.37 45.3714 33.3804C45.4385 33.3907 45.4741 33.4076 45.496 33.4296C45.518 33.4515 45.5349 33.4871 45.5452 33.5542C45.5556 33.6216 45.558 33.7117 45.558 33.8351V33.8431V33.8511V33.8591V33.8671V33.8751V33.8831V33.8911V33.8991V33.9071V33.9151V33.9231V33.9312V33.9392V33.9472V33.9552V33.9632V33.9712V33.9792V33.9872V33.9952V34.0032V34.0112V34.0192V34.0272V34.0352V34.0432V34.0513V34.0593V34.0673V34.0753V34.0833V34.0913V34.0993V34.1073V34.1153V34.1234V34.1314V34.1394V34.1474V34.1554V34.1634V34.1714V34.1794V34.1875V34.1955V34.2035V34.2115V34.2195V34.2275V34.2355V34.2436V34.2516V34.2596V34.2676V34.2756V34.2836V34.2917V34.2997V34.3077V34.3157V34.3237V34.3317V34.3398V34.3478V34.3558V34.3638V34.3718V34.3799V34.3879V34.3959V34.4039V34.412V34.42V34.428V34.436V34.444V34.4521V34.4601V34.4681V34.4761V34.4842V34.4922V34.5002V34.5082V34.5163V34.5243V34.5323V34.5403V34.5484V34.5564V34.5644V34.5724V34.5805V34.5885V34.5965V34.6046V34.6126V34.6206V34.6286V34.6367V34.6447V34.6527V34.6608V34.6688V34.6768V34.6849V34.6929V34.7009V34.709V34.717V34.725V34.733V34.7411V34.7491V34.7571V34.7652V34.7732V34.7813V34.7893V34.7973V34.8054V34.8134V34.8214V34.8295V34.8375V34.8455V34.8536V34.8616V34.8697V34.8777V34.8857V34.8938V34.9018V34.9098V34.9179V34.9259V34.934V34.942V34.95V34.9581V34.9661V34.9742V34.9822V34.9902V34.9983V35.0063V35.0144V35.0224V35.0305V35.0385V35.0466V35.0546V35.0626V35.0707V35.0787V35.0868V35.0948V35.1029V35.1109V35.119V35.127V35.1351V35.1431V35.1511V35.1592V35.1672V35.1753V35.1833V35.1914V35.1994V35.2075V35.2155V35.2236V35.2316V35.2397V35.2477V35.2558V35.2638V35.2719V35.2799V35.288V35.2961V35.3041V35.3122V35.3202V35.3283V35.3363V35.3444V35.3524V35.3605V35.3685V35.3766V35.3846V35.3927V35.4008V35.4088V35.4169V35.4249V35.433V35.441V35.4491V35.4572V35.4652V35.4733V35.4813V35.4894V35.4975V35.5055V35.5136V35.5216V35.5297V35.5378V35.5458V35.5539V35.5619V35.57V35.5781V35.5861V35.5942V35.6023V35.6103V35.6184V35.6264V35.6345V35.6426V35.6506V35.6587V35.6668V35.6748V35.6829V35.691V35.699V35.7071V35.7152V35.7232V35.7313V35.7394V35.7474V35.7555V35.7636V35.7717V35.7797V35.7878V35.7959V35.8039V35.812V35.8201V35.8281V35.8362V35.8443V35.8524V35.8604V35.8685V35.8766V35.8846V35.8927V35.9008V35.9089V35.9169V35.925V35.9331V35.9412V35.9492V35.9573V35.9654V35.9735V35.9815V35.9896V35.9977V36.0058V36.0139V36.0219V36.03V36.0381V36.0462V36.0543V36.0623V36.0704V36.0785V36.0866V36.0947V36.1027V36.1108V36.1189V36.127V36.1351V36.1431V36.1512V36.1593V36.1674V36.1755V36.1836V36.1916V36.1997V36.2078V36.2159V36.224V36.2321V36.2401V36.2482V36.2563V36.2644V36.2725V36.2806V36.2887V36.2968V36.3048V36.3129V36.321V36.3291V36.3372V36.3453V36.3534V36.3615V36.3696V36.3776V36.3857V36.3938V36.4019V36.41V36.4181V36.4262V36.4343V36.4424V36.4505V36.4586V36.4667V36.4748V36.4828V36.4909V36.499V36.5071V36.5152V36.5233V36.5314V36.5395V36.5476V36.5557V36.5638V36.5719V36.58V36.5881V36.5962V36.6043V36.6124V36.6205V36.6286V36.6367V36.6448V36.6529V36.661V36.6691V36.6772V36.6853V36.6934V36.7015V36.7096V36.7177V36.7258V36.7339V36.742V36.7501V36.7582V36.7663V36.7744V36.7825V36.7906V36.7987V36.8068V36.8149V36.823V36.8312V36.8393V36.8474V36.8555V36.8636V36.8717V36.8798V36.8879V36.896V36.9041V36.9122V36.9203V36.9284V36.9366V36.9447V36.9528V36.9609V36.969V36.9771V36.9852V36.9933V37.0014V37.0096V37.0177V37.0258V37.0339V37.042V37.0501V37.0582V37.0664V37.0745V37.0826V37.0907V37.0988V37.1069V37.115V37.1232V37.1313V37.1394V37.1475V37.1556V37.1637V37.1719V37.18V37.1881V37.1962V37.2043V37.2125V37.2206V37.2287V37.2368V37.2449V37.2531V37.2612V37.2693V37.2774V37.2855V37.2937V37.3018V37.3099V37.318V37.3262V37.3343V37.3424V37.3505V37.3587V37.3668V37.3749V37.383V37.3912V37.3993V37.4074V37.4155V37.4237V37.4318V37.4399V37.448V37.4562V37.4643V37.4724V37.4806V37.4887V37.4968V37.5049V37.5131V37.5212V37.5293V37.5375V37.5456V37.5537V37.5619V37.57V37.5781V37.5862V37.5944V37.6025V37.6106V37.6188V37.6269V37.635V37.6432V37.6513V37.6595V37.6676V37.6757V37.6839V37.692V37.7001V37.7083V37.7164V37.7245V37.7327V37.7408V37.749V37.7571V37.7652V37.7734V37.7815V37.7896V37.7978V37.8059V37.8141V37.8222V37.8303V37.8385V37.8466V37.8548V37.8629V37.8711V37.8792V37.8873V37.8955V37.9036V37.9118V37.9199V37.9281V37.9362V37.9443V37.9525V37.9606V37.9688V37.9766V37.9845V37.9924V38.0002V38.0081V38.0159V38.0238V38.0316V38.0395V38.0473V38.0552V38.0631V38.0709V38.0788V38.0866V38.0945V38.1023V38.1102V38.118V38.1259V38.1337V38.1416V38.1494V38.1573V38.1651V38.173V38.1808V38.1887V38.1965V38.2044V38.2122V38.2201V38.2279V38.2358V38.2436V38.2515V38.2593V38.2672V38.275V38.2829V38.2907V38.2986V38.3064V38.3142V38.3221V38.3299V38.3378V38.3456V38.3535V38.3613V38.3692V38.377V38.3849V38.3927V38.4005V38.4084V38.4162V38.4241V38.4319V38.4398V38.4476V38.4554V38.4633V38.4711V38.479V38.4868V38.4946V38.5025V38.5103V38.5182V38.526V38.5339V38.5417V38.5495V38.5574V38.5652V38.573V38.5809V38.5887V38.5966V38.6044V38.6122V38.6201V38.6279V38.6358V38.6436V38.6514V38.6593V38.6671V38.6749V38.6828V38.6906V38.6984V38.7063V38.7141V38.722V38.7298V38.7376V38.7455V38.7533V38.7611V38.769V38.7768V38.7846V38.7925V38.8003V38.8081V38.816V38.8238V38.8316V38.8395V38.8473V38.8551V38.863V38.8708V38.8786V38.8865V38.8943V38.9021V38.91V38.9178V38.9256V38.9334V38.9413V38.9491V38.9569V38.9648V38.9726V38.9804V38.9883V38.9961V39.0039V39.0117V39.0196V39.0274V39.0352V39.0431V39.0509V39.0587V39.0666V39.0744V39.0822V39.09V39.0979V39.1057V39.1135V39.1214V39.1292V39.137V39.1448V39.1527V39.1605V39.1683V39.1761V39.184V39.1918V39.1996V39.2074V39.2153V39.2231V39.2309V39.2388V39.2466V39.2544V39.2622V39.2701V39.2779V39.2857V39.2935V39.3014V39.3092V39.317V39.3248V39.3327V39.3405V39.3483V39.3561V39.364V39.3718V39.3796V39.3874V39.3953V39.4031V39.4109V39.4187V39.4266V39.4344V39.4422V39.45V39.4579V39.4657V39.4735V39.4813V39.4891V39.497V39.5048V39.5126V39.5204V39.5283V39.5361V39.5439V39.5517V39.5596V39.5674V39.5752V39.583V39.5908V39.5987V39.6065V39.6143V39.6221V39.63V39.6378V39.6456V39.6534V39.6612V39.6691V39.6769V39.6847V39.6925V39.7004V39.7082V39.716V39.7238V39.7316V39.7395V39.7473V39.7551V39.7629V39.7708V39.7786V39.7864V39.7942V39.802V39.8099V39.8177V39.8255V39.8333V39.8411V39.849V39.8568V39.8646V39.8724V39.8803V39.8881V39.8959V39.9037V39.9115V39.9194V39.9272V39.935V39.9428V39.9506V39.9585V39.9663V39.9741V39.9819V39.9898V39.9976V40.0054V40.0132V40.021V40.0289V40.0367V40.0445V40.0523V40.0601V40.068V40.0758V40.0836V40.0914V40.0992V40.1071V40.1149V40.1227V40.1305V40.1384V40.1462V40.154V40.1618V40.1696V40.1775V40.1853V40.1931V40.2009V40.2088V40.2166V40.2244V40.2322V40.24V40.2479V40.2557V40.2635V40.2713V40.2791V40.287V40.2948V40.3026V40.3104V40.3183V40.3261V40.3339V40.3417V40.3495V40.3574V40.3652V40.373V40.3808V40.3887V40.3965V40.4043V40.4121V40.42V40.4278V40.4356V40.4434V40.4512V40.4591V40.4669V40.4747V40.4825V40.4904V40.4982V40.506V40.5138V40.5217V40.5295V40.5373V40.5451V40.553V40.5608V40.5686V40.5764V40.5843V40.5921V40.5999V40.6077V40.6156V40.6234V40.6312V40.639V40.6469V40.6547V40.6625V40.6703V40.6782V40.686V40.6938V40.7016V40.7095V40.7173V40.7251V40.7329V40.7408V40.7486V40.7564V40.7642V40.7721V40.7799V40.7877V40.7956V40.8034V40.8112V40.819V40.8269V40.8347V40.8425V40.8503V40.8582V40.866V40.8738V40.8817V40.8895V40.8973V40.9051V40.913V40.9208V40.9286V40.9365V40.9443V40.9521V40.96V40.9678V40.9756V40.9834V40.9913V40.9991V41.0069V41.0148V41.0226V41.0304V41.0383V41.0461V41.0539V41.0618V41.0696V41.0774V41.0853V41.0931V41.1009V41.1088V41.1166V41.1244V41.1323V41.1401V41.1479V41.1558V41.1636V41.1714V41.1793V41.1871V41.1949V41.2028V41.2106V41.2184V41.2263V41.2341V41.2419V41.2498V41.2576V41.2654V41.2733V41.2811V41.289V41.2968V41.3046V41.3125V41.3203V41.3281V41.336V41.3438V41.3517V41.3595V41.3673V41.3752V41.383V41.3908V41.3987V41.4065V41.4144V41.4222V41.43V41.4379V41.4457V41.4536V41.4614V41.4692V41.4771V41.4849V41.4928V41.5006V41.5085V41.5163V41.5241V41.532V41.5398V41.5477V41.5555V41.5634V41.5712V41.5791V41.5869V41.5947V41.6026V41.6104V41.6183V41.6261V41.634V41.6418V41.6497V41.6575V41.6654V41.6732V41.681V41.6889V41.6967V41.7046V41.7124V41.7203V41.7281V41.736V41.7438V41.7517V41.7595V41.7674V41.7752V41.7831V41.7909V41.7988V41.8066V41.8145V41.8223V41.8302V41.838V41.8459V41.8537V41.8616V41.8695V41.8773V41.8852V41.893V41.9009V41.9087V41.9166V41.9244V41.9323V41.9401V41.948V41.9559V41.9637V41.9716V41.9794C45.558 42.1314 45.5571 42.2409 45.5469 42.3222C45.5367 42.4036 45.5184 42.4446 45.4934 42.4691C45.4681 42.4939 45.4258 42.5121 45.3422 42.5221C45.259 42.5322 45.147 42.533 44.9921 42.533H44.9869H44.9818H44.9767H44.9716H44.9665H44.9614H44.9562H44.9511H44.946H44.9409H44.9358H44.9306H44.9255H44.9204H44.9153H44.9102H44.9051H44.8999H44.8948H44.8897H44.8846H44.8795H44.8743H44.8692H44.8641H44.859H44.8539H44.8488H44.8436H44.8385H44.8334H44.8283H44.8232H44.818H44.8129H44.8078H44.8027H44.7976H44.7925H44.7873H44.7822H44.7771H44.772H44.7669H44.7618H44.7566H44.7515H44.7464H44.7413H44.7362H44.731H44.7259H44.7208H44.7157H44.7106H44.7055H44.7003H44.6952H44.6901H44.685H44.6799H44.6747H44.6696H44.6645H44.6594H44.6543H44.6492H44.644H44.6389H44.6338H44.6287H44.6236H44.6184H44.6133H44.6082H44.6031H44.598H44.5929H44.5877H44.5826H44.5775H44.5724H44.5673H44.5621H44.557H44.5519H44.5468H44.5417H44.5366H44.5314H44.5263H44.5212H44.5161H44.511H44.5058H44.5007H44.4956H44.4905H44.4854H44.4803H44.4751H44.47H44.4649H44.4598H44.4547H44.4495H44.4444H44.4393H44.4342H44.4291H44.424H44.4188H44.4137H44.4086H44.4035H44.3984H44.3932H44.3881H44.383H44.3779H44.3728H44.3677H44.3625H44.3574H44.3523H44.3472H44.3421H44.337H44.3318H44.3267H44.3216H44.3165H44.3114H44.3062H44.3011H44.296H44.2909H44.2858H44.2807H44.2755H44.2704H44.2653H44.2602H44.2551H44.2499H44.2448H44.2397H44.2346H44.2295H44.2244H44.2192H44.2141H44.209H44.2039H44.1988H44.1936H44.1885H44.1834H44.1783H44.1732H44.1681H44.1629H44.1578H44.1527H44.1476H44.1425H44.1373H44.1322H44.1271H44.122H44.1169H44.1118H44.1066H44.1015H44.0964H44.0913H44.0862H44.081H44.0759H44.0708H44.0657H44.0606H44.0555H44.0503H44.0452H44.0401H44.035H44.0299H44.0247H44.0196H44.0145H44.0094H44.0043H43.9992H43.994H43.9889H43.9838H43.9787H43.9736H43.9684H43.9633H43.9582H43.9531H43.948H43.9429H43.9377H43.9326H43.9275H43.9224H43.9173H43.9121H43.907H43.9019H43.8968H43.8917H43.8866H43.8814H43.8763H43.8712H43.8661H43.861H43.8559H43.8507H43.8456H43.8405H43.8354H43.8303H43.8251H43.82H43.8149H43.8098H43.8047H43.7996H43.7944H43.7893H43.7842H43.7791H43.774H43.7688H43.7637H43.7586H43.7535H43.7484H43.7433H43.7381H43.733H43.7279H43.7228H43.7177H43.7125H43.7074H43.7023H43.6972H43.6921H43.687H43.6818H43.6767H43.6716H43.6665H43.6614H43.6562H43.6511H43.646H43.6409H43.6358H43.6307H43.6255H43.6204H43.6153H43.6102H43.6051H43.5999H43.5948H43.5897H43.5846H43.5795H43.5744H43.5692H43.5641H43.559H43.5539H43.5488H43.5436H43.5385H43.5334H43.5283H43.5232H43.5181H43.5129H43.5078H43.5027H43.4976H43.4925H43.4873H43.4822H43.4771H43.472H43.4669H43.4618H43.4566H43.4515H43.4464H43.4413H43.4362H43.431H43.4259H43.4208H43.4157H43.4106H43.4055H43.4003H43.3952H43.3901H43.385H43.3799H43.3747H43.3696H43.3645H43.3594H43.3543H43.3492H43.344H43.3389H43.3338H43.3287H43.3236H43.3185H43.3133H43.3082H43.3031H43.298H43.2929H43.2877H43.2826H43.2775H43.2724H43.2673H43.2622H43.257H43.2519H43.2468H43.2417H43.2366H43.2314H43.2263H43.2212H43.2161H43.211H43.2059H43.2007H43.1956H43.1905H43.1854H43.1803H43.1751H43.17H43.1649H43.1598H43.1547H43.1496H43.1444H43.1393H43.1342H43.1291H43.124H43.1188H43.1137H43.1086H43.1035H43.0984H43.0933H43.0881H43.083H43.0779H43.0728H43.0677H43.0625H43.0574H43.0523H43.0472H43.0421H43.037H43.0318H43.0267H43.0216H43.0165H43.0114H43.0062H43.0011H42.996H42.9909H42.9858H42.9807H42.9755H42.9704H42.9653H42.9602H42.9551H42.9499H42.9448H42.9397H42.9346H42.9295H42.9244H42.9192H42.9141H42.909H42.9039H42.8988H42.8936H42.8885H42.8834H42.8783H42.8732H42.8681H42.8629H42.8578H42.8527H42.8476H42.8425H42.8374H42.8322H42.8271H42.822H42.8169H42.8118H42.8066H42.8015H42.7964H42.7913H42.7862H42.7811H42.7759H42.7708H42.7657H42.7606H42.7555H42.7503H42.7452H42.7401H42.735H42.7299H42.7248H42.7196H42.7145H42.7094H42.7043H42.6992H42.694H42.6889H42.6838H42.6787H42.6736H42.6685H42.6633H42.6582H42.6531H42.648H42.6429H42.6377H42.6326H42.6275H42.6224H42.6173H42.6122H42.607H42.6019H42.5968H42.5917H42.5866H42.5814H42.5763H42.5712H42.5661H42.561H42.5559H42.5507H42.5456H42.5405H42.5354H42.5303H42.5251H42.52H42.5149H42.5098H42.5047H42.4996H42.4944H42.4893H42.4842H42.4791H42.474H42.4688H42.4637H42.4586H42.4535H42.4484H42.4433H42.4381H42.433H42.4279H42.4228H42.4177H42.4126H42.4074H42.4023H42.3972H42.3921H42.387H42.3818H42.3767H42.3716C42.2578 42.533 42.1741 42.5299 42.1111 42.5191C42.0486 42.5084 42.0141 42.4914 41.9922 42.4696C41.9703 42.4477 41.9533 42.4131 41.9426 42.3506C41.9319 42.2877 41.9287 42.2039 41.9287 42.0902V42.0739V42.0577V42.0415V42.0253V42.0091V41.9928V41.9766V41.9604V41.9442V41.928V41.9118V41.8955V41.8793V41.8631V41.8469V41.8307V41.8145V41.7983V41.782V41.7658V41.7496V41.7334V41.7172V41.701V41.6848V41.6685V41.6523V41.6361V41.6199V41.6037V41.5875V41.5713V41.5551V41.5389V41.5226V41.5064V41.4902V41.474V41.4578V41.4416V41.4254V41.4092V41.393V41.3768V41.3606V41.3443V41.3281V41.3119V41.2957V41.2795V41.2633V41.2471V41.2309V41.2147V41.1985V41.1823V41.1661V41.1499V41.1337V41.1175V41.1013V41.0851V41.0689V41.0527V41.0364V41.0202V41.004V40.9878V40.9716V40.9554V40.9392V40.923V40.9068V40.8906V40.8744V40.8582V40.842V40.8258V40.8096V40.7934V40.7772V40.761V40.7448V40.7286V40.7124V40.6962V40.68V40.6638V40.6476V40.6314V40.6152V40.599V40.5828V40.5666V40.5504V40.5342V40.518V40.5018V40.4857V40.4695V40.4533V40.4371V40.4209V40.4047V40.3885V40.3723V40.3561V40.3399V40.3237V40.3075V40.2913V40.2751V40.2589V40.2427V40.2265V40.2103V40.1941V40.1779V40.1617V40.1456V40.1294V40.1132V40.097V40.0808V40.0646V40.0484V40.0322V40.016V39.9998V39.9836V39.9674V39.9512V39.9351V39.9189V39.9027V39.8865V39.8703V39.8541V39.8379V39.8217V39.8055V39.7893V39.7731V39.757V39.7408V39.7246V39.7084V39.6922V39.676V39.6598V39.6436V39.6274V39.6112V39.5951V39.5789V39.5627V39.5465V39.5303V39.5141V39.4979V39.4817V39.4656V39.4494V39.4332V39.417V39.4008V39.3846V39.3684V39.3522V39.3361V39.3199V39.3037V39.2875V39.2713V39.2551V39.2389V39.2227V39.2066V39.1904V39.1742V39.158V39.1418V39.1256V39.1094V39.0933V39.0771V39.0609V39.0447V39.0285V39.0123V38.9961V38.98V38.9638V38.9476V38.9314V38.9152V38.899V38.8828V38.8667V38.8505V38.8343V38.8181V38.8019V38.7857V38.7695V38.7534V38.7372V38.721V38.7048V38.6886V38.6724V38.6563V38.6401V38.6239V38.6077V38.5915V38.5753V38.5592V38.543V38.5268V38.5106V38.4944V38.4782V38.462V38.4459V38.4297V38.4135V38.3973V38.3811V38.3649V38.3488V38.3326V38.3164V38.3002V38.284V38.2678V38.2517V38.2355V38.2193V38.2031V38.1869V38.1707V38.1546V38.1384V38.1222V38.106V38.0898V38.0736V38.0575V38.0413V38.0251V38.0089V37.9927V37.9765V37.9604V37.9442V37.928V37.9118V37.8956V37.8794V37.8633V37.8471V37.8309V37.8147V37.7985V37.7823V37.7662V37.75V37.7338V37.7176V37.7014V37.6852V37.6691V37.6529V37.6367V37.6205V37.6043V37.5881V37.572V37.5558V37.5396V37.5234V37.5072V37.491V37.4749V37.4587V37.4425V37.4263V37.4101V37.3939V37.3778V37.3616V37.3454V37.3292V37.313V37.2968V37.2807V37.2645V37.2483V37.2321V37.2159V37.1997V37.1836V37.1674V37.1512V37.135V37.1188V37.1026V37.0864V37.0703V37.0541V37.0379V37.0217V37.0055V36.9893V36.9731V36.957V36.9408V36.9246V36.9084V36.8922V36.876V36.8599V36.8437V36.8275V36.8113V36.7951V36.7789V36.7627V36.7465V36.7304V36.7142V36.698V36.6818V36.6656V36.6494V36.6332V36.6171V36.6009V36.5847V36.5685V36.5523V36.5361V36.5199V36.5037V36.4876V36.4714V36.4552V36.439V36.4228V36.4066V36.3904V36.3742V36.3581V36.3419V36.3257V36.3095V36.2933V36.2771V36.2609V36.2447V36.2285V36.2124V36.1962V36.18V36.1638V36.1476V36.1314V36.1152V36.099V36.0828V36.0666V36.0505V36.0343V36.0181V36.0019V35.9857V35.9695V35.9533V35.9371V35.9209V35.9047V35.8885V35.8723V35.8562V35.84V35.8238V35.8076V35.7914V35.7752V35.759V35.7428V35.7266V35.7104V35.6942V35.678V35.6618V35.6456V35.6294V35.6133V35.5971V35.5809V35.5647V35.5485V35.5323V35.5161V35.4999V35.4837V35.4675V35.4513V35.4351V35.4189V35.4027V35.3865V35.3703V35.3541V35.3379V35.3217V35.3055V35.2893V35.2731V35.2569V35.2407V35.2245V35.2083V35.1921V35.1759V35.1597V35.1435V35.1273V35.1111V35.0949V35.0787V35.0625V35.0463V35.0301V35.0139V34.9977V34.9815V34.9653V34.9491V34.9329V34.9167V34.9005V34.8843V34.8681V34.8519V34.8357V34.8195V34.8033V34.7871V34.7709V34.7547V34.7385V34.7223V34.7061V34.6899V34.6737V34.6575V34.6413V34.625V34.6088V34.5926V34.5764V34.5602V34.544V34.5278V34.5116V34.4954V34.4792V34.463V34.4468V34.4306V34.4143V34.3981V34.3819V34.3657V34.3495V34.3333V34.3171V34.3009V34.2847V34.2684V34.2522V34.236V34.2198V34.2036V34.1874V34.1712V34.155V34.1387V34.1225V34.1063V34.0901V34.0739V34.0577V34.0415V34.0252V34.009V33.9928V33.9766V33.9604V33.9442V33.928V33.9117V33.8955V33.8793V33.8631V33.8469V33.8306V33.8144V33.7982C41.9287 33.6844 41.9319 33.6015 41.9426 33.5398C41.9532 33.4787 41.97 33.4462 41.9912 33.4259C42.0127 33.4054 42.047 33.3895 42.1101 33.3798C42.1735 33.37 42.2575 33.3676 42.3716 33.3676Z" fill="white" stroke="#3763BA" stroke-width="0.123026"/>
<path d="M1 47.6638V28.7793" stroke="#3763BA" stroke-width="1.35329" stroke-miterlimit="10"/>
<path d="M23.8096 29.9111H6.83203V46.4581H20.1803" stroke="#3763BA" stroke-width="1.35329" stroke-miterlimit="10"/>
<path d="M23.8086 29.9111H40.7862V46.4581H27.4256" stroke="#3763BA" stroke-width="1.35329" stroke-miterlimit="10"/>
<path d="M1 32.7402H6.11788" stroke="#3763BA" stroke-width="1.35329" stroke-miterlimit="10"/>
<path d="M1 43.1367H6.11788" stroke="#3763BA" stroke-width="1.35329" stroke-miterlimit="10"/>
<path d="M46.5938 47.6638V28.7793" stroke="#3763BA" stroke-width="1.35329" stroke-miterlimit="10"/>
<path d="M46.595 32.7402H41.4648" stroke="#3763BA" stroke-width="1.35329" stroke-miterlimit="10"/>
<path d="M46.595 43.1367H41.4648" stroke="#3763BA" stroke-width="1.35329" stroke-miterlimit="10"/>
<path d="M14.668 46.7657V12.626H20.6962C20.6962 12.626 19.1461 1 29.7017 1C37.7968 1 37.7968 1 37.7968 1V6.47465H30.0462C26.946 6.47465 26.6876 7.76643 26.6876 12.626H32.7159V46.7657" stroke="#3763BA" stroke-width="1.35329" stroke-miterlimit="10"/>
<path d="M27.2045 17.4238H20.1797V24.4486H27.2045V17.4238Z" stroke="#3763BA" stroke-width="1.35329" stroke-miterlimit="10"/>
<path d="M14.9766 35.0781H32.7169" stroke="#3763BA" stroke-width="1.35329" stroke-miterlimit="10"/>
<path d="M14.9766 41.0449H32.7169" stroke="#3763BA" stroke-width="1.35329" stroke-miterlimit="10"/>
</svg>
