<svg width="48" height="38" viewBox="0 0 48 38" fill="none" xmlns="http://www.w3.org/2000/svg">
<path d="M1 18.9987V1H4.99834L9.18123 4.38321V18.4697" stroke="#3763BA" stroke-width="1.35329" stroke-miterlimit="10"/>
<path d="M1 18.9987V36.9974H4.99834L9.18123 33.6142V18.4697" stroke="#3763BA" stroke-width="1.35329" stroke-miterlimit="10"/>
<path d="M9.17969 12.4419H33.2928C33.2928 12.4419 41.4863 11.8022 43.5654 17.4245C45.3862 22.3455 44.7957 31.2034 44.7957 31.2034" stroke="#3763BA" stroke-width="1.35329" stroke-miterlimit="10"/>
<path d="M9.17969 24.1289H44.7711" stroke="#3763BA" stroke-width="1.35329" stroke-miterlimit="10"/>
<path d="M32.2266 12.4414V31.818" stroke="#3763BA" stroke-width="1.35329" stroke-miterlimit="10"/>
<path d="M16.9922 12.4414V24.1289" stroke="#3763BA" stroke-width="1.35329" stroke-miterlimit="10"/>
<path d="M24.6211 12.4414V24.1289" stroke="#3763BA" stroke-width="1.35329" stroke-miterlimit="10"/>
<path d="M46.9018 31.4238H30.9453V36.8001H46.9018V31.4238Z" stroke="#3763BA" stroke-width="1.35329" stroke-miterlimit="10"/>
<path d="M32.2266 24.1285L41.9333 14.9385" stroke="#3763BA" stroke-width="1.35329" stroke-miterlimit="10"/>
<path d="M19.4785 8.27051H14.582V12.0228H19.4785V8.27051Z" stroke="#3763BA" stroke-width="1.35329" stroke-miterlimit="10"/>
<path d="M17.0312 1.19727V8.27126" stroke="#3763BA" stroke-width="1.35329" stroke-miterlimit="10"/>
<path d="M27.0683 8.27051H22.1719V12.0228H27.0683V8.27051Z" stroke="#3763BA" stroke-width="1.35329" stroke-miterlimit="10"/>
<path d="M24.6211 1.19727V8.27126" stroke="#3763BA" stroke-width="1.35329" stroke-miterlimit="10"/>
<path d="M34.6738 8.27051H29.7773V12.0228H34.6738V8.27051Z" stroke="#3763BA" stroke-width="1.35329" stroke-miterlimit="10"/>
<path d="M32.2266 1.19727V8.27126" stroke="#3763BA" stroke-width="1.35329" stroke-miterlimit="10"/>
</svg>
