<svg width="45" height="52" viewBox="0 0 45 52" fill="none" xmlns="http://www.w3.org/2000/svg">
<path d="M18.3881 6.39272C18.2991 6.80795 18.2546 7.23801 18.2546 7.66807L16.5195 6.68931C16.5492 6.46687 16.6827 6.09613 16.7271 5.88852C16.9496 4.86527 17.3945 3.93101 18.0322 3.08572C18.566 2.3739 19.2927 2.44805 19.6634 3.24885C20.1973 4.3759 20.6867 5.50295 21.2057 6.62999C21.3243 6.89693 21.443 7.16386 21.5913 7.41596C22.1103 8.30574 23.2225 8.66165 24.1419 8.23159C25.0317 7.83119 25.5508 6.76346 25.2097 5.81437C24.9576 5.08772 24.6017 4.39073 24.2902 3.69374C23.964 2.96709 23.6377 2.25527 23.3115 1.54345C22.8369 0.505378 23.1929 -0.0284873 24.3199 0.00117184C29.095 0.164297 32.4762 4.27209 31.6902 8.97307C31.4826 10.2188 30.9636 11.3458 30.1776 12.3246C30.0145 12.5322 29.9848 12.7101 30.0589 12.9622C32.2537 20.7033 34.4485 28.4295 36.6433 36.1705C36.7174 36.4375 36.8361 36.5709 37.103 36.6747C41.1663 38.1725 43.1683 42.7252 41.5074 46.744C41.2701 47.3224 40.929 47.8562 40.5731 48.3753C40.0393 49.1316 39.2829 49.0129 38.8974 48.1677C38.3783 47.0258 37.8593 45.8839 37.3403 44.742C37.2365 44.5047 37.1327 44.2526 37.014 44.0302C36.495 43.0514 35.3679 42.6511 34.404 43.0811C33.4401 43.5112 32.9507 44.6234 33.3363 45.6466C33.5884 46.3288 33.9146 46.9813 34.2261 47.6486C34.5968 48.4939 34.9972 49.3244 35.3679 50.1548C35.7387 50.9853 35.3383 51.5785 34.4188 51.5488C29.5844 51.4005 26.1736 47.2927 26.9744 42.5472C27.182 41.3312 27.6714 40.2338 28.4425 39.2699C28.6353 39.0326 28.6798 38.8102 28.5908 38.5136C28.3684 37.8314 28.1756 37.1493 28.0125 36.4523L21.7544 15.335L20.7608 14.549M21.1464 12.6953C21.5171 12.9177 21.9175 13.0957 22.3476 13.2143C23.0149 13.4071 23.356 13.7334 23.5488 14.4155C25.8029 22.4087 28.0866 30.387 30.3852 38.3801C30.578 39.0475 30.4742 39.522 30.0145 40.041C27.4193 42.9921 28.4722 47.7079 32.0609 49.265C32.402 49.4133 32.7728 49.5023 33.2325 49.6506C33.1138 49.3837 33.0545 49.2354 32.9952 49.1019C32.5503 48.1232 32.0609 47.1444 31.6902 46.136C31.0525 44.4603 31.7495 42.5621 33.2473 41.6871C34.8341 40.7529 36.8064 41.0198 37.9779 42.4138C38.3783 42.8883 38.6453 43.4667 38.927 44.0302C39.2681 44.6975 39.5499 45.3945 39.9206 46.1953C40.0541 45.7504 40.1875 45.439 40.2469 45.1128C40.84 41.9985 39.194 39.2106 36.1687 38.2467C35.5755 38.0539 35.2641 37.7276 35.101 37.1344C32.8469 29.1265 30.578 21.1185 28.2794 13.1254C28.0866 12.4728 28.1904 12.0131 28.6353 11.4941C31.5864 8.12778 29.8365 2.87811 25.3728 1.88453C25.4766 2.1218 25.5508 2.28493 25.6249 2.46288C26.0401 3.42681 26.5147 4.3759 26.8706 5.35465C27.3748 6.71897 26.8706 8.29091 25.699 9.29932C24.6313 10.2188 22.9704 10.4264 21.7099 9.81835C20.8349 9.3883 20.2269 8.70614 19.8265 7.83119C19.4706 7.06005 19.0999 6.27408 18.7143 5.4288C18.655 5.57709 18.6253 5.63641 18.5957 5.69573C18.5067 5.933 18.4326 6.17028 18.3881 6.40755" fill="#3763BA"/>
<path d="M21.2371 20.7333C21.2371 23.803 21.2371 26.8876 21.2371 29.9573C21.2371 30.2242 21.3112 30.4022 21.5188 30.595C24.6034 33.3384 25.7897 36.7492 24.7368 40.7384C23.6691 44.772 20.9405 47.2486 16.8327 48.0049C10.5153 49.1616 4.7614 43.9713 5.22112 37.5797C5.4139 34.7769 6.60027 32.4487 8.75056 30.6246C8.98784 30.4318 9.07681 30.2242 9.07681 29.9276C9.06198 23.9217 9.07681 17.9008 9.07681 11.8949C9.07681 9.52213 10.0556 7.68327 12.0872 6.46724C16.0912 4.07968 21.1926 6.98628 21.2371 11.6873C21.2667 14.6828 21.2371 17.7081 21.2371 20.7333ZM19.5762 21.0892C19.5762 17.9898 19.591 14.8904 19.5762 11.7762C19.5613 10.0263 18.805 8.66202 17.2627 7.83156C15.7649 7.01594 14.2375 7.06042 12.799 7.96503C11.3457 8.88446 10.7229 10.2636 10.7229 11.969C10.7377 18.1085 10.7229 24.2331 10.7377 30.3725C10.7377 30.9212 10.5746 31.292 10.1149 31.633C7.10447 33.902 6.03675 37.9653 7.50487 41.4354C9.00266 44.95 12.6952 47.0558 16.4323 46.3885C19.9469 45.7656 22.2306 43.645 23.1649 40.1897C24.025 37.0162 22.7645 33.5905 20.0952 31.6034C19.6948 31.3068 19.5317 30.9657 19.5465 30.4763C19.591 27.3473 19.5762 24.2183 19.5762 21.0892Z" fill="#3763BA"/>
<path d="M44.9906 23.4761C44.9906 23.6393 45.0054 23.8172 44.9906 23.9952C44.9312 24.4401 44.605 24.7367 44.1898 24.7367C43.7449 24.7367 43.4186 24.4401 43.3593 23.9655C43.2852 23.402 43.2703 22.8236 43.1369 22.2898C42.4399 19.4425 39.8892 17.4108 36.9529 17.3367C36.3153 17.3219 35.9297 17.0104 35.9297 16.4914C35.9297 16.0169 36.3004 15.6758 36.8343 15.6758C38.9549 15.7054 40.8086 16.4321 42.3657 17.8854C43.9822 19.3832 44.8423 21.2517 44.9906 23.4761Z" fill="#3763BA"/>
<path d="M41.4023 23.5956C41.4023 23.8032 41.4171 23.9219 41.4023 24.0405C41.3429 24.4557 41.0019 24.7375 40.6015 24.7375C40.2159 24.7375 39.8748 24.4705 39.8007 24.085C39.7413 23.8032 39.7413 23.5066 39.682 23.2249C39.3706 21.905 38.2584 20.9856 36.8792 20.9114C36.2712 20.8818 35.9153 20.5407 35.9301 20.0365C35.945 19.5323 36.3454 19.2357 36.9386 19.2505C39.2965 19.3098 41.2688 21.2525 41.4023 23.5956Z" fill="#3763BA"/>
<path d="M3.21924 13.674C2.46293 13.674 1.69179 13.674 0.935481 13.674C0.386786 13.674 0.0308837 13.3477 0.0160542 12.8732C0.00122458 12.3838 0.371957 12.0131 0.935481 12.0131C2.46293 11.9982 3.97555 11.9982 5.503 12.0131C6.06652 12.0131 6.43725 12.3838 6.43725 12.8584C6.42242 13.3477 6.05168 13.6592 5.47333 13.6592C4.71702 13.674 3.97555 13.674 3.21924 13.674Z" fill="#3763BA"/>
<path d="M3.21846 28.5627C2.46215 28.5627 1.69101 28.5627 0.934699 28.5627C0.386004 28.5627 0.0301053 28.2512 0.00044609 27.7619C-0.0143835 27.2725 0.341519 26.9017 0.919873 26.9017C2.44732 26.8869 3.95994 26.8869 5.48739 26.9017C6.05092 26.9017 6.42164 27.2725 6.42164 27.747C6.40682 28.2364 6.03608 28.5478 5.45772 28.5478C4.71624 28.5627 3.97477 28.5627 3.21846 28.5627Z" fill="#3763BA"/>
<path d="M3.24889 19.4727C3.99037 19.4727 4.74669 19.4727 5.48817 19.4727C6.03687 19.4727 6.4076 19.7989 6.42243 20.2735C6.43726 20.7628 6.06652 21.1336 5.503 21.1336C3.97555 21.1484 2.46293 21.1484 0.935481 21.1336C0.371957 21.1336 0.00122458 20.7777 0.0160542 20.2883C0.0308837 19.7989 0.386794 19.4875 0.979977 19.4875C1.73629 19.4727 2.49258 19.4727 3.24889 19.4727Z" fill="#3763BA"/>
<path d="M4.41883 15.7498C4.8044 15.7498 5.18998 15.7349 5.57554 15.7498C6.06492 15.7646 6.43565 16.1353 6.42082 16.5802C6.42082 17.0251 6.06492 17.381 5.59037 17.3958C4.78957 17.4107 3.98878 17.4107 3.18799 17.3958C2.71344 17.381 2.37235 17.0103 2.38718 16.5654C2.38718 16.1205 2.74309 15.7646 3.21764 15.7498C3.61804 15.7349 4.01843 15.7498 4.41883 15.7498Z" fill="#3763BA"/>
<path d="M4.42147 23.1951C4.80704 23.1951 5.19262 23.1802 5.57819 23.1951C6.06756 23.2099 6.40864 23.551 6.42347 23.9959C6.43829 24.4408 6.11204 24.8115 5.62266 24.8263C4.80704 24.856 3.99141 24.856 3.17578 24.8263C2.68641 24.8115 2.375 24.4408 2.375 23.9959C2.38983 23.551 2.71608 23.2247 3.20545 23.1951C3.23511 23.1951 3.26477 23.1951 3.29443 23.1951C3.68 23.1951 4.05073 23.1951 4.42147 23.1951Z" fill="#3763BA"/>
<path d="M36.7798 24.9304C36.2163 24.9453 35.7417 24.5004 35.7269 23.9369C35.7121 23.3733 36.1718 22.9136 36.7353 22.8988C37.2989 22.884 37.7734 23.3289 37.7882 23.8924C37.8031 24.4559 37.3434 24.9304 36.7798 24.9304Z" fill="#3763BA"/>
<path d="M14.3254 34.1387C14.3254 33.9755 14.3254 33.7976 14.3254 33.6196C14.3254 26.8128 14.3254 19.9912 14.3254 13.1845C14.3254 13.0213 14.3254 12.8582 14.3402 12.6802C14.3847 12.265 14.6962 11.9684 15.0966 11.9388C15.4821 11.9091 15.8529 12.176 15.9418 12.5764C15.9863 12.7692 15.9863 12.962 15.9863 13.1548C15.9863 19.9616 15.9863 26.7832 15.9863 33.59C15.9863 33.7679 15.9863 33.9459 15.9863 34.1535C17.2913 34.4946 18.2849 35.236 18.8633 36.4521C19.2785 37.327 19.3526 38.2316 19.145 39.1659C18.7001 41.0344 16.9354 42.3839 15.0224 42.3098C13.0797 42.2356 11.3892 40.7971 11.0926 38.9286C10.7515 36.719 11.834 35.0877 14.3254 34.1387ZM15.1707 35.7699C13.8064 35.7699 12.6942 36.8525 12.6942 38.202C12.6942 39.5514 13.8064 40.6637 15.1559 40.6637C16.4905 40.6637 17.5879 39.5663 17.6028 38.2316C17.6028 36.8673 16.535 35.7699 15.1707 35.7699Z" fill="#3763BA"/>
</svg>
