<svg width="53" height="48" viewBox="0 0 53 48" fill="none" xmlns="http://www.w3.org/2000/svg">
<path d="M45.3889 34.6112C44.5893 34.6112 43.8142 34.6112 43.0514 34.6112C42.6824 34.6112 42.3256 34.6235 41.9565 34.5989C41.5013 34.5743 41.1814 34.2544 41.1568 33.8238C41.1445 33.4547 41.4275 33.1226 41.8458 33.0488C41.9934 33.0242 42.1533 33.0119 42.301 33.0119C43.1868 32.9995 44.0725 32.9996 44.9583 32.9873C45.0937 32.9873 45.229 32.9873 45.4012 32.9873C45.4012 31.3264 45.4012 29.7148 45.4012 28.0539C45.2413 28.0416 45.106 28.0293 44.9706 28.0293C44.0725 28.0293 43.1745 28.0293 42.2764 28.0293C42.1164 28.0293 41.9688 28.0293 41.8089 28.0047C41.4398 27.9432 41.1568 27.611 41.1568 27.2419C41.1568 26.8729 41.4521 26.5407 41.8212 26.4792C41.9565 26.4546 42.1041 26.4669 42.2395 26.4546C43.1376 26.4546 44.0356 26.4546 44.9337 26.4546C45.0691 26.4546 45.2167 26.4546 45.352 26.4546C45.4504 26.1224 45.475 22.6777 45.4012 21.5335C45.2905 21.5212 45.1675 21.5089 45.0445 21.5089C44.0849 21.5089 43.1376 21.5089 42.178 21.5089C41.9934 21.5089 41.8089 21.4843 41.6366 21.4351C41.3414 21.3367 41.1445 21.0045 41.1445 20.7093C41.1445 20.4017 41.3783 20.0695 41.6981 19.9834C41.8704 19.9342 42.0549 19.9219 42.2395 19.9096C43.1376 19.8973 44.0356 19.9096 44.9337 19.9096C45.0691 19.9096 45.2167 19.9096 45.4012 19.9096C45.4012 19.7374 45.4012 19.5774 45.4012 19.4298C45.4012 18.0396 45.4012 16.6494 45.4012 15.2592C45.4012 14.7302 45.4873 14.2258 45.7457 13.7583C46.2624 12.8233 47.3573 12.2697 48.4031 12.405C49.5103 12.5526 50.433 13.3769 50.6667 14.4472C50.7283 14.7425 50.7529 15.0624 50.7529 15.3699C50.7529 22.5916 50.7529 29.8255 50.7529 37.0471C50.7529 37.1455 50.7652 37.2439 50.7529 37.3424C50.7282 37.5146 50.8021 37.6253 50.9374 37.736C51.6755 38.3266 52.1677 39.0893 52.3891 39.9997C52.7213 41.353 52.5982 42.6571 51.7863 43.8258C50.2731 46.0403 47.4312 46.3971 45.512 45.0069C44.0233 43.9242 43.3959 42.4356 43.6297 40.6026C43.7773 39.4338 44.3186 38.4742 45.2167 37.7237C45.3397 37.613 45.4258 37.5146 45.4135 37.3424C45.4012 36.4812 45.4135 35.6323 45.4012 34.7711C45.4258 34.7342 45.4135 34.6973 45.3889 34.6112ZM49.1781 26.4669C49.1781 22.8007 49.1781 19.1222 49.1781 15.4561C49.1781 15.2838 49.1781 15.1239 49.1658 14.9516C49.1166 14.4103 48.6614 14.0043 48.1201 13.992C47.5665 13.992 47.0867 14.4103 47.0498 14.9639C47.0375 15.1362 47.0375 15.2961 47.0375 15.4684C47.0375 20.5616 47.0375 25.6426 47.0375 30.7359C47.0375 33.0734 47.0375 35.3986 47.0375 37.736C47.0375 38.1666 46.9145 38.4865 46.5454 38.7449C45.4873 39.4707 45.0937 40.4672 45.2659 41.7344C45.4996 43.4445 47.2835 44.5763 48.969 44.0473C50.4822 43.5675 51.368 41.9312 50.8636 40.295C50.6667 39.6553 50.2977 39.1262 49.7194 38.7818C49.3135 38.5234 49.1535 38.1789 49.1658 37.7237C49.1658 37.6253 49.1658 37.5269 49.1658 37.4285C49.1781 33.7746 49.1781 30.1207 49.1781 26.4669Z" fill="#3763BA"/>
<path d="M11.3342 11.4697H1V46.7782H11.3342V11.4697Z" stroke="#3763BA" stroke-width="1.35329" stroke-miterlimit="10"/>
<path d="M21.1027 46.7782C19.1835 46.7782 17.6211 45.2034 17.6211 43.2965V14.9514C17.6211 13.0322 19.1958 11.4697 21.1027 11.4697C23.0219 11.4697 24.5844 13.0322 24.5844 14.9514V43.2842C24.5844 45.2034 23.0219 46.7782 21.1027 46.7782Z" stroke="#3763BA" stroke-width="1.50179" stroke-miterlimit="10"/>
<path d="M28.0676 46.7782C26.1484 46.7782 24.5859 45.2034 24.5859 43.2965V14.9514C24.5859 13.0322 26.1607 11.4697 28.0676 11.4697C29.9868 11.4697 31.5492 13.0322 31.5492 14.9514V43.2842C31.5615 45.2034 29.9868 46.7782 28.0676 46.7782Z" stroke="#3763BA" stroke-width="1.50179" stroke-miterlimit="10"/>
<path d="M35.0402 46.7782C33.121 46.7782 31.5586 45.2034 31.5586 43.2965V14.9514C31.5586 13.0322 33.1333 11.4697 35.0402 11.4697C36.9594 11.4697 38.5219 13.0322 38.5219 14.9514V43.2842C38.5219 45.2034 36.9594 46.7782 35.0402 46.7782Z" stroke="#3763BA" stroke-width="1.50179" stroke-miterlimit="10"/>
<path d="M11.3359 15.6523H17.6103" stroke="#3763BA" stroke-width="1.50179" stroke-miterlimit="10"/>
<path d="M11.3359 43.0254H17.6103" stroke="#3763BA" stroke-width="1.50179" stroke-miterlimit="10"/>
<path d="M1 18.2734H11.3342" stroke="#3763BA" stroke-width="1.50179" stroke-miterlimit="10"/>
<path d="M1 26.8848H11.3342" stroke="#3763BA" stroke-width="1.50179" stroke-miterlimit="10"/>
<path d="M19.885 1C19.885 1 19.762 3.53434 20.3771 4.08795C20.9923 4.64157 20.8077 7.53268 20.8077 7.53268" stroke="#3763BA" stroke-width="1.50179" stroke-miterlimit="10"/>
<path d="M26.6624 1C26.6624 1 26.5394 3.53434 27.1545 4.08795C27.7696 4.64157 27.5851 7.53268 27.5851 7.53268" stroke="#3763BA" stroke-width="1.50179" stroke-miterlimit="10"/>
<path d="M33.4319 1C33.4319 1 33.3089 3.53434 33.924 4.08795C34.5392 4.64157 34.3546 7.53268 34.3546 7.53268" stroke="#3763BA" stroke-width="1.50179" stroke-miterlimit="10"/>
</svg>
