<svg width="50" height="50" viewBox="0 0 50 50" fill="none" xmlns="http://www.w3.org/2000/svg">
<g clip-path="url(#clip0_80_425)">
<path d="M3.24023 45.2139C2.05711 44.9719 1.61344 44.4341 1.6 43.3182C1.6 42.9149 1.6 42.5115 1.6 42.1082C1.6 41.1402 2.05711 40.5621 2.99823 40.347C3.06545 40.3335 3.11923 40.3201 3.21334 40.3067C3.21334 40.1319 3.21334 39.9571 3.21334 39.7958C3.21334 38.1286 3.19989 36.475 3.21334 34.8079C3.22678 31.5274 5.68712 29.0805 8.95413 29.0536C10.2448 29.0402 11.5355 29.0536 12.853 29.0536C12.8934 28.8923 12.9202 28.7444 12.974 28.61C13.1891 27.8974 13.7673 27.4672 14.5067 27.4403C15.0445 27.4268 15.5823 27.4268 16.12 27.4403C16.8998 27.4537 17.4914 27.9243 17.693 28.6772C17.7199 28.7847 17.7468 28.9057 17.7737 29.0267C19.0913 29.0267 20.3954 29.0267 21.7398 29.0267C21.7398 27.9781 21.7398 26.9294 21.7398 25.8135C21.4709 25.8135 21.2155 25.8135 20.9466 25.8135C19.6022 25.7732 18.5535 24.7111 18.5535 23.3935C18.5535 22.0759 19.6022 21.0138 20.96 20.9735C21.2155 20.9735 21.4575 20.9735 21.7533 20.9735C21.8474 19.8711 22.2642 18.9568 23.1784 18.3249C23.8103 17.8947 24.5094 17.6931 25.2757 17.7603C26.6336 17.8813 28.0991 18.8762 28.2604 20.9735C28.5158 20.9735 28.7847 20.9735 29.0402 20.9735C30.3846 21.0004 31.4467 22.0491 31.4602 23.3801C31.4736 24.7245 30.4115 25.7866 29.0267 25.8135C28.7847 25.8135 28.5293 25.8135 28.2604 25.8135C28.2604 26.9025 28.2604 27.9377 28.2604 28.9999C29.578 28.9999 30.8955 28.9999 32.24 28.9999C32.2668 28.8654 32.3072 28.731 32.3475 28.5831C32.5761 27.8705 33.1407 27.4403 33.8802 27.4268C34.3642 27.4134 34.8482 27.4268 35.3456 27.4268C36.3136 27.4268 36.8917 27.884 37.1069 28.8251C37.1203 28.8923 37.1337 28.9461 37.1472 29.0267C38.1959 29.0267 39.2445 29.0267 40.3066 29.0267C40.3066 28.5024 40.3066 27.9915 40.3066 27.4672C40.1319 27.4268 39.9571 27.3865 39.7823 27.3193C39.137 27.0504 38.7605 26.5664 38.7336 25.8538C38.7067 25.3833 38.7336 24.9127 38.7336 24.4422C38.7336 23.3263 39.1908 22.7885 40.3201 22.5599C40.3201 19.8979 40.3201 17.2359 40.3201 14.547C39.7957 14.547 39.2849 14.547 38.774 14.547C38.4916 15.7033 37.9807 16.12 36.9052 16.1335C36.8917 16.1335 36.8649 16.1335 36.8514 16.1335C36.5019 16.1335 36.1389 16.1066 35.7893 16.1335C34.7944 16.2142 34.0012 15.6226 33.8667 14.547C32.2803 14.547 30.6938 14.547 29.1074 14.547C29.0267 14.7756 28.9864 15.0176 28.8923 15.2193C28.6099 15.7974 28.1394 16.1066 27.4941 16.1335C27.0235 16.1469 26.5529 16.1335 26.0824 16.1335C24.9799 16.1335 24.4287 15.6764 24.2002 14.547C22.8826 14.547 21.565 14.547 20.1937 14.547C20.0324 14.8697 19.871 15.2193 19.6828 15.5419C17.4779 19.2526 14.2109 21.1214 9.90869 20.9466C4.84012 20.7584 0.645443 16.7519 0.0673305 11.7506C-0.578004 6.11736 3.22678 1.07568 8.81968 0.134565C13.2967 -0.618325 17.9485 1.80168 19.8979 5.94258C20.0996 6.3728 20.3282 6.4938 20.7584 6.48036C21.8877 6.45347 23.0036 6.46691 24.1464 6.46691C24.1733 6.33247 24.2002 6.22491 24.2271 6.11736C24.4422 5.33758 25.0337 4.88046 25.8404 4.86702C26.3109 4.85358 26.7815 4.86702 27.2521 4.86702C28.2201 4.86702 28.7982 5.32413 29.0133 6.26525C29.0267 6.33247 29.0402 6.38625 29.0536 6.46691C30.6535 6.46691 32.2265 6.46691 33.8264 6.46691C33.8667 6.31902 33.8936 6.18458 33.934 6.03669C34.1491 5.32413 34.7272 4.89391 35.4666 4.86702C35.9641 4.85358 36.475 4.86702 36.9724 4.86702C37.8732 4.88046 38.4647 5.33758 38.6799 6.21147C38.6933 6.29213 38.7067 6.3728 38.7336 6.48036C39.9168 6.48036 41.0999 6.46691 42.2695 6.48036C42.7266 6.48036 43.1838 6.4938 43.6274 6.56102C46.3298 6.9778 48.3464 9.26336 48.3868 12.006C48.4137 14.2916 48.4002 16.5772 48.4002 18.8627C48.4002 20.0862 48.4002 21.3096 48.4002 22.5599C48.5347 22.6003 48.6691 22.6137 48.7901 22.6541C49.543 22.8692 50.0001 23.4607 50.0135 24.254C50.027 24.738 50.0135 25.222 50.0135 25.7194C50.0001 26.6471 49.543 27.2252 48.6288 27.4403C48.5616 27.4537 48.5078 27.4672 48.4137 27.4806C48.4137 31.756 48.4137 36.0179 48.4137 40.3201C48.5347 40.347 48.6557 40.3739 48.7767 40.4142C49.5295 40.6293 49.9867 41.2074 50.0001 42.0007C50.0135 42.4174 50.0001 42.8342 50.0001 43.2644C50.0001 44.461 49.5968 44.9719 48.4002 45.2408C48.4002 46.8138 48.4002 48.3868 48.4002 50.0001C45.7113 50.0001 43.0493 50.0001 40.3335 50.0001C40.3335 48.4271 40.3335 46.8407 40.3335 45.2542C40.0781 45.1736 39.863 45.1467 39.6748 45.0526C39.0832 44.7702 38.7336 44.2997 38.7067 43.6274C38.6933 43.13 38.6933 42.6191 38.7067 42.1217C38.7067 41.1537 39.1773 40.589 40.105 40.3739C40.1722 40.3604 40.226 40.347 40.2932 40.3335C40.2932 39.2714 40.2932 38.2362 40.2932 37.1606C39.2311 37.1606 38.1824 37.1606 37.1337 37.1606C36.838 38.3169 36.3405 38.7337 35.265 38.7471C35.2381 38.7471 35.1977 38.7471 35.1709 38.7471C34.8347 38.7471 34.4986 38.7202 34.1625 38.7471C33.1273 38.8278 32.361 38.1959 32.24 37.1606C27.4268 37.1606 22.6137 37.1606 17.7871 37.1606C17.7199 37.3758 17.6796 37.5909 17.5989 37.7791C17.3166 38.3706 16.8326 38.7068 16.1738 38.7337C15.7033 38.7471 15.2327 38.7337 14.7621 38.7337C13.6597 38.7337 13.1085 38.2765 12.8799 37.1472C12.369 37.1472 11.8581 37.1472 11.3204 37.1472C11.3204 38.1959 11.3204 39.2311 11.3204 40.2798C11.3338 40.2932 11.3472 40.3335 11.3741 40.3335C12.4766 40.5755 12.9068 41.0999 12.9068 42.2292C12.9068 42.5788 12.9068 42.9283 12.9068 43.2913C12.9068 44.4476 12.4766 44.9719 11.2935 45.2273C11.2935 46.8003 11.2935 48.4002 11.2935 50.0001C8.59113 50.0001 5.94257 50.0001 3.25367 50.0001C3.24023 48.4137 3.24023 46.8272 3.24023 45.2139ZM1.6 10.4734C1.58656 15.3672 5.56612 19.3602 10.4599 19.3736C15.3403 19.3736 19.3198 15.4075 19.3467 10.5406C19.3602 5.6468 15.394 1.64035 10.5002 1.6269C5.60645 1.61346 1.61344 5.57958 1.6 10.4734ZM46.76 22.5868C46.7734 22.4658 46.7734 22.3852 46.7734 22.3045C46.7734 18.8896 46.7869 15.4882 46.7734 12.0733C46.76 9.84148 44.9853 8.10714 42.7401 8.08025C41.5166 8.0668 40.2932 8.08025 39.0563 8.08025C38.9487 8.08025 38.8412 8.10714 38.7471 8.12058C38.7471 9.73392 38.7471 11.3204 38.7471 12.9203C38.9353 12.9203 39.0832 12.9203 39.2445 12.9203C39.5672 12.9203 39.8764 12.9203 40.1991 12.9203C41.2612 12.9337 41.9334 13.579 41.9334 14.6546C41.9334 17.1284 41.9334 19.5887 41.9334 22.0625C41.9334 22.2373 41.9334 22.4121 41.9334 22.6003C43.5736 22.5868 45.1332 22.5868 46.76 22.5868ZM32.2265 30.6939C27.3731 30.6939 22.5734 30.6939 17.7603 30.6939C17.7603 32.3072 17.7603 33.8936 17.7603 35.4801C22.6003 35.4801 27.4134 35.4801 32.2265 35.4801C32.2265 33.8667 32.2265 32.2937 32.2265 30.6939ZM12.8665 30.667C11.5355 30.667 10.2582 30.667 8.98102 30.667C6.56101 30.6804 4.82667 32.4147 4.82667 34.8348C4.82667 36.5153 4.82667 38.1959 4.82667 39.8764C4.82667 40.0243 4.84012 40.1722 4.85356 40.3067C6.4669 40.3067 8.05335 40.3067 9.62635 40.3067C9.6398 40.2394 9.65324 40.2125 9.65324 40.1722C9.65324 39.2176 9.65324 38.2631 9.65324 37.2951C9.65324 36.1389 10.2986 35.4935 11.4682 35.4935C11.9254 35.4935 12.3959 35.4935 12.853 35.4935C12.8665 33.8667 12.8665 32.2938 12.8665 30.667ZM41.9603 40.3067C43.5871 40.3067 45.1735 40.3067 46.7331 40.3067C46.7331 36.0044 46.7331 31.7291 46.7331 27.4672C45.1198 27.4672 43.5468 27.4672 41.9603 27.4672C41.9603 31.756 41.9603 36.0179 41.9603 40.3067ZM29.0536 8.10714C29.0536 9.73392 29.0536 11.3069 29.0536 12.8934C30.667 12.8934 32.2534 12.8934 33.8264 12.8934C33.8264 11.28 33.8264 9.69359 33.8264 8.10714C32.2265 8.10714 30.6535 8.10714 29.0536 8.10714ZM20.6777 8.09369C21.0676 9.70703 21.0542 11.2935 20.6777 12.8934C21.8743 12.8934 23.0036 12.8934 24.1598 12.8934C24.1598 11.28 24.1598 9.69359 24.1598 8.09369C22.9902 8.09369 21.8474 8.09369 20.6777 8.09369ZM37.1203 35.4666C38.2093 35.4666 39.258 35.4666 40.2798 35.4666C40.2798 33.8533 40.2798 32.2669 40.2798 30.6939C39.2042 30.6939 38.169 30.6939 37.1203 30.6939C37.1203 32.2937 37.1203 33.8667 37.1203 35.4666ZM9.62635 48.3868C9.62635 47.2978 9.62635 46.2491 9.62635 45.2273C8.01301 45.2273 6.42657 45.2273 4.85356 45.2273C4.85356 46.3029 4.85356 47.3381 4.85356 48.3868C6.45346 48.3868 8.02646 48.3868 9.62635 48.3868ZM41.9603 48.3733C43.5871 48.3733 45.1735 48.3733 46.7331 48.3733C46.7331 47.2978 46.7331 46.2491 46.7331 45.2139C45.1198 45.2139 43.5468 45.2139 41.9603 45.2139C41.9603 46.276 41.9603 47.3112 41.9603 48.3733ZM24.9531 24.2136C26.2168 24.2136 27.4672 24.2136 28.7309 24.2136C29.4435 24.2136 29.8334 23.9178 29.82 23.3935C29.8065 22.8826 29.4435 22.6003 28.7578 22.6003C26.2437 22.6003 23.7162 22.6003 21.202 22.6003C21.1079 22.6003 21.0004 22.6003 20.9063 22.6137C20.4626 22.6675 20.1534 23.0036 20.1668 23.4204C20.1668 23.8237 20.4626 24.1464 20.8794 24.2002C21.0138 24.2136 21.1483 24.2136 21.2827 24.2136C22.5062 24.2136 23.7296 24.2136 24.9531 24.2136ZM27.3731 14.5067C27.3731 11.8044 27.3731 9.14236 27.3731 6.50725C26.8218 6.50725 26.3109 6.50725 25.8269 6.50725C25.8269 9.19614 25.8269 11.8447 25.8269 14.5067C26.3513 14.5067 26.8487 14.5067 27.3731 14.5067ZM35.5204 6.4938C35.5204 9.19614 35.5204 11.8581 35.5204 14.5202C36.0582 14.5202 36.5556 14.5202 37.0665 14.5202C37.0665 11.8313 37.0665 9.1827 37.0665 6.4938C36.5422 6.4938 36.0447 6.4938 35.5204 6.4938ZM14.5336 37.08C15.0714 37.08 15.5823 37.08 16.0797 37.08C16.0797 34.3911 16.0797 31.7291 16.0797 29.0671C15.5419 29.0671 15.0445 29.0671 14.5336 29.0671C14.5336 31.7425 14.5336 34.3911 14.5336 37.08ZM33.8936 37.08C34.4314 37.08 34.9423 37.08 35.4397 37.08C35.4397 34.3911 35.4397 31.7291 35.4397 29.0671C34.902 29.0671 34.4045 29.0671 33.8936 29.0671C33.8936 31.756 33.8936 34.3911 33.8936 37.08ZM40.347 25.7866C43.0493 25.7866 45.7113 25.7866 48.3464 25.7866C48.3464 25.2354 48.3464 24.7245 48.3464 24.2405C45.6575 24.2405 43.009 24.2405 40.347 24.2405C40.347 24.7648 40.347 25.2623 40.347 25.7866ZM3.22678 43.5333C5.94257 43.5333 8.60457 43.5333 11.2531 43.5333C11.2531 42.9955 11.2531 42.4981 11.2531 41.9872C8.56424 41.9872 5.90223 41.9872 3.22678 41.9872C3.22678 42.5115 3.22678 43.009 3.22678 43.5333ZM48.3733 41.9872C45.671 41.9872 43.009 41.9872 40.3604 41.9872C40.3604 42.525 40.3604 43.0359 40.3604 43.5333C43.0628 43.5333 45.7113 43.5333 48.3733 43.5333C48.3733 43.009 48.3733 42.525 48.3733 41.9872ZM26.5664 29.0267C26.5664 27.9377 26.5664 26.8891 26.5664 25.8673C25.4908 25.8673 24.4422 25.8673 23.4069 25.8673C23.4069 26.9428 23.4069 27.9781 23.4069 29.0267C24.4691 29.0267 25.5043 29.0267 26.5664 29.0267ZM26.5798 20.9601C26.5126 19.9921 25.8001 19.3333 24.8993 19.3736C24.0523 19.4139 23.3935 20.1131 23.4204 20.9601C24.4825 20.9601 25.5312 20.9601 26.5798 20.9601Z" fill="#3763BA"/>
<path d="M15.341 12.8802C15.3141 15.569 13.163 17.7471 10.5144 17.7605C7.8524 17.7739 5.70129 15.6363 5.63407 12.9474C5.62062 12.3155 5.71473 11.7239 5.94329 11.1324C6.80374 9.03503 7.6104 6.92425 8.44396 4.82691C8.48429 4.71935 8.52463 4.59835 8.57841 4.50424C8.95485 3.69757 9.58674 3.25391 10.4875 3.25391C11.3749 3.25391 12.0202 3.69757 12.3832 4.51769C12.7327 5.32435 13.0285 6.14447 13.3512 6.95114C13.8755 8.25525 14.3999 9.57281 14.8973 10.8769C15.0318 11.213 15.1393 11.576 15.22 11.939C15.2738 12.2348 15.3006 12.5575 15.341 12.8802ZM7.19363 12.7457C7.22051 12.7457 7.23396 12.7591 7.26085 12.7591C7.26085 12.8398 7.26085 12.9205 7.26085 13.0146C7.32807 15.0447 9.2103 16.5102 11.1866 16.0665C13.1226 15.6363 14.1982 13.633 13.4856 11.7239C13.0285 10.487 12.5176 9.26359 12.0336 8.02669C11.6572 7.09903 11.2942 6.1848 10.9446 5.25713C10.864 5.02858 10.7161 4.88069 10.4741 4.88069C10.2455 4.89413 10.1111 5.01513 10.0304 5.23024C9.99008 5.3378 9.94974 5.44536 9.89596 5.55291C9.06241 7.65025 8.24229 9.73414 7.42218 11.8315C7.31463 12.1273 7.26085 12.4365 7.19363 12.7457Z" fill="#3763BA"/>
<path d="M43.5742 12.9336C44.0986 12.9336 44.596 12.9336 45.1338 12.9336C45.1338 13.4579 45.1338 13.9554 45.1338 14.4932C44.6229 14.4932 44.112 14.4932 43.5742 14.4932C43.5742 13.9823 43.5742 13.4983 43.5742 12.9336Z" fill="#3763BA"/>
<path d="M45.1472 16.1875C45.1472 16.7118 45.1472 17.2093 45.1472 17.7336C44.6229 17.7336 44.112 17.7336 43.5742 17.7336C43.5742 17.2093 43.5742 16.7253 43.5742 16.1875C44.0851 16.1875 44.5826 16.1875 45.1472 16.1875Z" fill="#3763BA"/>
<path d="M45.1338 19.4004C45.1338 19.9113 45.1338 20.4087 45.1338 20.9465C44.6229 20.9465 44.1254 20.9465 43.5742 20.9465C43.5742 20.4491 43.5742 19.9382 43.5742 19.4004C44.0986 19.4004 44.6094 19.4004 45.1338 19.4004Z" fill="#3763BA"/>
<path d="M19.375 33.8528C19.375 33.315 19.375 32.8175 19.375 32.3066C19.8993 32.3066 20.3968 32.3066 20.9211 32.3066C20.9211 32.8041 20.9211 33.315 20.9211 33.8528C20.4237 33.8528 19.9128 33.8528 19.375 33.8528Z" fill="#3763BA"/>
<path d="M24.1611 32.3066C24.1611 32.831 24.1611 33.3284 24.1611 33.8528C23.6502 33.8528 23.1393 33.8528 22.6016 33.8528C22.6016 33.3419 22.6016 32.831 22.6016 32.3066C23.1125 32.3066 23.6099 32.3066 24.1611 32.3066Z" fill="#3763BA"/>
<path d="M25.8125 33.8528C25.8125 33.3419 25.8125 32.8444 25.8125 32.3066C26.3368 32.3066 26.8477 32.3066 27.3855 32.3066C27.3855 32.8175 27.3855 33.315 27.3855 33.8528C26.8881 33.8528 26.3772 33.8528 25.8125 33.8528Z" fill="#3763BA"/>
<path d="M45.1186 32.2664C44.5943 32.2664 44.1103 32.2664 43.5859 32.2664C43.5859 31.7555 43.5859 31.2446 43.5859 30.6934C44.0834 30.6934 44.5943 30.6934 45.1186 30.6934C45.1186 31.2177 45.1186 31.742 45.1186 32.2664Z" fill="#3763BA"/>
<path d="M43.5742 33.9199C44.0986 33.9199 44.5826 33.9199 45.1203 33.9199C45.1203 34.4308 45.1203 34.9417 45.1203 35.4795C44.6229 35.4795 44.112 35.4795 43.5742 35.4795C43.5742 34.9551 43.5742 34.4443 43.5742 33.9199Z" fill="#3763BA"/>
<path d="M45.1321 38.7205C44.5943 38.7205 44.1103 38.7205 43.5859 38.7205C43.5859 38.2096 43.5859 37.6987 43.5859 37.1475C44.0834 37.1475 44.5808 37.1475 45.1321 37.1475C45.1321 37.6584 45.1321 38.1692 45.1321 38.7205Z" fill="#3763BA"/>
</g>
<defs>
<clipPath id="clip0_80_425">
<rect width="50" height="50" fill="white"/>
</clipPath>
</defs>
</svg>
