<svg width="46" height="46" viewBox="0 0 46 46" fill="none" xmlns="http://www.w3.org/2000/svg">
<path d="M36.4599 20.6684C36.4845 21.0866 36.6567 21.2835 37.0135 21.3696C37.3211 21.4557 37.6286 21.5788 37.8993 21.7387C38.1699 21.8863 38.3668 21.8494 38.6251 21.7141C39.1049 21.4434 39.6093 21.2097 40.0522 20.9759C41.3686 22.28 42.6604 23.5718 43.9768 24.8881C43.743 25.3556 43.4847 25.8724 43.2017 26.3891C43.091 26.5982 43.0787 26.7704 43.1894 26.9919C43.337 27.2872 43.497 27.607 43.5831 27.9269C43.6815 28.2714 43.8783 28.419 44.2105 28.5051C44.7272 28.6404 45.2316 28.825 45.7483 28.9849C45.7483 30.818 45.7483 32.6265 45.7483 34.4842C45.207 34.6687 44.6534 34.8656 44.0998 35.0255C43.8537 35.0993 43.7061 35.21 43.6323 35.4561C43.5216 35.8006 43.3739 36.145 43.214 36.4772C43.091 36.7109 43.1156 36.8955 43.2386 37.1169C43.5093 37.609 43.7553 38.1257 43.9891 38.5809C42.685 39.8973 41.3932 41.1891 40.0768 42.5055C39.6216 42.2717 39.0926 42.0134 38.5882 41.7304C38.3791 41.6074 38.2068 41.6074 37.9854 41.7058C37.6409 41.878 37.2841 42.0257 36.9274 42.1487C36.6936 42.2225 36.5829 42.3578 36.5214 42.5916C36.3615 43.1452 36.1646 43.6988 35.9801 44.2647C34.147 44.2647 32.3385 44.2647 30.4931 44.2647C30.3332 43.7603 30.1486 43.2559 30.0133 42.7515C29.9149 42.407 29.7673 42.1856 29.3982 42.0995C29.0906 42.0257 28.783 41.8903 28.5124 41.7304C28.2786 41.5951 28.0941 41.632 27.8727 41.755C27.3806 42.0257 26.8638 42.284 26.4087 42.5055C25.0923 41.1891 23.8005 39.9096 22.4841 38.5809C22.7056 38.1503 22.9516 37.6336 23.2223 37.1415C23.3576 36.9078 23.3822 36.7109 23.2469 36.4649C23.0746 36.145 22.9393 35.7882 22.8286 35.4438C22.7548 35.21 22.6194 35.0993 22.3857 35.0378C21.8321 34.8779 21.2785 34.681 20.7126 34.4965C20.7126 32.6634 20.7126 30.8549 20.7126 29.0095C21.2293 28.8496 21.746 28.665 22.275 28.5174C22.5825 28.4313 22.7794 28.296 22.8655 27.9638C22.9516 27.6316 23.1116 27.2995 23.2715 26.9919C23.3699 26.795 23.3699 26.6228 23.2592 26.4383C23.1239 26.2045 23.0008 25.9585 22.8409 25.6632C21.9182 26.9181 20.8602 27.9884 19.6053 28.8373C18.3628 29.6862 17.0095 30.2767 15.5086 30.6581C15.5086 31.0394 15.5086 31.4085 15.5086 31.7776C15.5086 32.1959 15.4963 32.6142 15.5086 33.0202C15.5209 33.4754 15.4224 33.9059 15.2256 34.3119C15.3363 34.4104 15.447 34.5088 15.5455 34.5949C15.9884 35.0132 16.2344 35.5422 16.2344 36.1573C16.2467 38.1873 16.2713 40.2172 16.2221 42.2471C16.1852 44.1171 14.6597 45.6549 12.7897 45.778C10.9443 45.901 9.27114 44.6092 8.93897 42.7638C8.88976 42.4809 8.86515 42.1856 8.86515 41.8903C8.85285 40.1557 8.86515 38.421 8.86515 36.674C8.86515 35.4438 8.98817 35.1485 9.87396 34.2996C9.5787 33.746 9.59101 33.1309 9.60331 32.5281C9.61561 31.9129 9.60331 31.2978 9.60331 30.6704C5.93714 29.6739 3.16905 27.5578 1.40978 24.2115C0.0810975 21.6895 -0.287978 19.0075 0.216428 16.2025C1.27445 10.3711 6.55226 5.65919 13.2572 5.94215C13.2695 5.80682 13.2818 5.6838 13.2818 5.54847C13.2818 4.50275 13.3064 3.45703 13.2818 2.41131C13.2326 0.99651 14.3152 0 15.6439 0C24.8831 0.0123026 34.1224 0.0123026 43.3739 0C44.7641 0 45.7729 1.03342 45.7606 2.41131C45.736 7.70142 45.736 12.9915 45.7606 18.2817C45.7606 19.6472 44.7395 20.693 43.3493 20.6807C41.2333 20.6438 39.1049 20.6684 36.9889 20.6684C36.8166 20.6684 36.6444 20.6684 36.4599 20.6684ZM29.5335 1.47631C24.9816 1.47631 20.4296 1.48861 15.8899 1.46401C14.9918 1.46401 14.7335 1.78388 14.7335 2.59585C14.7458 7.76294 14.7581 12.93 14.7335 18.0848C14.7335 18.9583 15.0657 19.2167 15.8407 19.2167C24.9569 19.2043 34.0732 19.2043 43.1894 19.2167C43.9522 19.2167 44.2966 18.9706 44.2966 18.0848C44.272 12.9177 44.272 7.75063 44.2966 2.59585C44.2966 1.73467 43.9768 1.46401 43.1894 1.47631C38.6374 1.47631 34.0855 1.47631 29.5335 1.47631ZM13.2818 10.3957C9.5787 9.91589 4.96523 12.5856 4.44852 17.6665C3.98102 22.2308 7.38884 26.2291 11.9777 26.549C14.3029 26.7089 16.3451 25.9708 18.0552 24.396C19.2116 23.3257 20.2574 21.5418 20.2574 20.6438C20.0851 20.6438 19.9252 20.6438 19.753 20.6438C18.3505 20.6438 16.9603 20.6438 15.5578 20.6438C14.7704 20.6438 14.1307 20.3239 13.6755 19.6718C13.3802 19.2536 13.2818 18.7861 13.2818 18.2817C13.2818 15.8211 13.2818 13.3606 13.2818 10.9001C13.2818 10.7525 13.2818 10.5925 13.2818 10.3957ZM39.7816 22.7598C39.2895 23.0059 38.7728 23.2765 38.2684 23.5349C37.7886 23.3011 37.3457 23.0674 36.8782 22.8828C36.4107 22.686 35.9309 22.5384 35.4634 22.3784C35.2665 21.8002 35.082 21.2343 34.9097 20.7053C33.7533 20.7053 32.6461 20.7053 31.5388 20.7053C31.342 21.2958 31.1574 21.8617 30.9729 22.4153C30.0502 22.6614 29.189 22.9935 28.3894 23.461C28.254 23.5349 28.1433 23.5472 28.008 23.461C27.7865 23.3257 27.5405 23.215 27.3067 23.1043C27.0607 22.9812 26.8146 22.8582 26.6547 22.7844C25.8304 23.621 25.0554 24.396 24.2434 25.208C24.4279 25.5648 24.6248 25.9831 24.8462 26.3768C24.9815 26.6105 24.9939 26.8074 24.8462 27.0534C24.4525 27.7177 24.1696 28.4313 23.9727 29.1818C23.9112 29.4278 23.7882 29.5631 23.5298 29.6369C23.0623 29.7723 22.6072 29.9322 22.152 30.0798C22.152 31.224 22.152 32.3312 22.152 33.4508C22.6318 33.6107 23.0993 33.7583 23.5668 33.906C23.7759 33.9675 23.8866 34.0905 23.9481 34.2996C24.0712 34.6933 24.1942 35.0993 24.3541 35.4807C24.5387 35.9359 24.7724 36.3665 24.9939 36.8094C24.7232 37.3384 24.4525 37.8674 24.2311 38.3349C25.0554 39.1592 25.8304 39.9342 26.6424 40.7585C27.0238 40.5617 27.4667 40.3402 27.8973 40.1065C28.0941 39.9957 28.254 39.9957 28.4509 40.1065C29.1275 40.5001 29.8534 40.8077 30.6161 41.0045C30.8868 41.0784 31.0221 41.2137 31.0959 41.4844C31.219 41.9395 31.3789 42.3824 31.5265 42.8376C32.6584 42.8376 33.7656 42.8376 34.8851 42.8376C35.0697 42.2594 35.2665 41.6935 35.4265 41.2137C36.4107 40.8077 37.3334 40.4263 38.3053 40.0203C38.7728 40.2541 39.3018 40.5247 39.7816 40.7708C40.5935 39.9588 41.3809 39.1838 42.1929 38.3718C41.9468 37.8797 41.6762 37.3507 41.4424 36.8955C41.8484 35.9113 42.2298 34.9886 42.6358 34.0167C43.1279 33.8567 43.6938 33.6722 44.272 33.4754C44.272 32.3435 44.272 31.2486 44.272 30.1168C43.7061 29.9322 43.1402 29.7354 42.6358 29.5754C42.2298 28.5912 41.8361 27.6562 41.4424 26.6966C41.6885 26.2168 41.9468 25.7001 42.1929 25.2203C41.3809 24.3591 40.5935 23.5841 39.7816 22.7598ZM13.2572 7.41846C7.80713 6.96327 2.03721 11.0108 1.4959 17.5681C0.979188 23.7071 5.59266 29.1079 11.8055 29.5016C18.3012 29.9199 22.6564 24.962 23.3207 20.6807C22.8286 20.6807 22.3488 20.6807 21.869 20.6807C20.6879 25.5648 16.0007 28.6773 11.0919 27.9269C6.57687 27.2256 3.16905 23.4734 2.95991 18.8722C2.86149 16.5839 3.48892 14.4925 4.90372 12.6717C7.00746 9.9528 9.84936 8.74714 13.2572 8.85787C13.2572 8.35346 13.2572 7.89827 13.2572 7.41846ZM10.3169 39.2207C10.3169 40.1311 10.3169 41.0292 10.3169 41.9395C10.3169 41.9641 10.3169 42.0011 10.3169 42.0257C10.3292 43.3174 11.3011 44.3016 12.5559 44.2893C13.7862 44.2893 14.7581 43.3051 14.7581 42.038C14.7704 40.1311 14.7581 38.2242 14.7581 36.3173C14.7581 35.6775 14.4874 35.4192 13.86 35.4192C12.9865 35.4192 12.113 35.4192 11.2272 35.4192C10.5752 35.4192 10.3169 35.6775 10.3169 36.3542C10.3169 37.3138 10.3169 38.2611 10.3169 39.2207ZM11.055 30.9533C11.055 31.7284 11.0427 32.5158 11.0673 33.2908C11.0796 33.6845 11.3872 33.9429 11.8055 33.9552C12.2607 33.9675 12.7282 33.9675 13.1834 33.9552C13.7247 33.9429 13.9953 33.6722 14.0076 33.1309C14.0199 32.688 14.0076 32.2451 14.0076 31.8022C14.0076 31.5192 14.0076 31.224 14.0076 30.9533C13.0234 30.9533 12.0761 30.9533 11.055 30.9533ZM29.9518 20.693C28.254 20.693 26.5686 20.693 24.8954 20.693C24.6986 21.4311 24.5017 22.1324 24.2803 22.932C24.9939 22.2185 25.6336 21.5788 26.2856 20.9267C26.8023 21.1851 27.2821 21.4188 27.7496 21.6895C28.0326 21.8494 28.2663 21.8863 28.5616 21.7141C28.82 21.5664 29.1152 21.4434 29.4105 21.3696C29.755 21.2835 29.9272 21.0866 29.9518 20.693Z" fill="#3763BA"/>
<path d="M20.4166 8.32895C19.0757 7.03718 18.8173 5.56087 19.6785 4.2691C20.4781 3.07574 22.0037 2.63285 23.3077 3.21107C24.7348 3.8385 25.3131 5.20409 24.8825 7.00027C26.0266 7.83685 27.1954 8.68573 28.3395 9.5223C30.0373 8.59961 30.8984 8.63652 32.3625 9.71914C33.4205 9.10401 34.5031 8.47658 35.6226 7.82454C35.2536 6.6804 35.3889 5.59778 36.0409 4.60127C36.5207 3.87541 37.1974 3.37101 38.034 3.12495C39.6825 2.62055 41.4541 3.3341 42.303 4.83501C43.1518 6.33593 42.832 8.24283 41.5402 9.37467C40.7774 10.0513 39.8793 10.3712 38.8705 10.3097C37.874 10.2482 37.0497 9.81757 36.3485 9.07941C35.2536 9.71915 34.1832 10.3466 33.0883 10.9863C33.3713 12.5733 32.8915 13.8036 31.3906 14.4926C30.2833 15.0093 29.2007 14.8124 28.3026 14.0128C27.3184 13.1393 27.0723 12.032 27.4906 10.728C26.3588 9.87908 25.1777 9.0425 23.9967 8.18132C23.3447 8.66112 22.6188 8.93178 21.7822 8.84566C21.7207 8.99329 21.6592 9.11632 21.6223 9.23934C21.081 10.6295 20.552 12.0197 20.0107 13.4099C19.8999 13.6929 19.8999 13.8897 20.1214 14.1481C20.7857 14.8985 20.798 15.9812 20.2198 16.7931C19.6539 17.5805 18.6451 17.9127 17.7224 17.6051C16.7997 17.2975 16.1722 16.3748 16.2215 15.4029C16.2707 14.3326 17.0826 13.4714 18.2145 13.3115C18.2883 13.2992 18.3621 13.2992 18.4974 13.2869C19.1495 11.6383 19.7769 9.9898 20.4166 8.32895ZM39.092 8.87027C40.3222 8.88257 41.331 7.88606 41.331 6.6558C41.331 5.45014 40.3591 4.44133 39.1535 4.42903C37.9232 4.41673 36.9021 5.40093 36.8898 6.61889C36.8775 7.84915 37.874 8.85796 39.092 8.87027ZM20.6504 5.91764C20.6504 6.71731 21.3147 7.38165 22.1267 7.38165C22.951 7.38165 23.6276 6.70501 23.6153 5.88073C23.6153 5.08107 22.951 4.41673 22.139 4.41673C21.3147 4.41673 20.6504 5.09337 20.6504 5.91764ZM28.7701 11.7983C28.7578 12.598 29.4098 13.2746 30.2095 13.2992C31.0338 13.3115 31.7227 12.6472 31.7227 11.8352C31.735 11.0109 31.0584 10.3343 30.2341 10.3343C29.4344 10.3343 28.7824 10.9863 28.7701 11.7983ZM19.1864 15.5014C19.1864 15.1077 18.8665 14.7755 18.4605 14.7632C18.0422 14.7509 17.6978 15.0831 17.6978 15.5014C17.6978 15.895 18.0176 16.2272 18.4236 16.2395C18.8419 16.2518 19.1864 15.9197 19.1864 15.5014Z" fill="#3763BA"/>
<path d="M42.7827 13.3359C42.7827 13.8034 42.7827 14.2462 42.7827 14.6891C42.4506 14.7753 36.1885 14.7999 35.4258 14.7137C35.4258 14.4923 35.4258 14.2708 35.4258 14.0494C35.4258 13.8157 35.4258 13.5942 35.4258 13.3728C35.7703 13.2743 42.0323 13.2497 42.7827 13.3359Z" fill="#3763BA"/>
<path d="M36.8802 16.2891C36.8802 16.7689 36.8802 17.2118 36.8802 17.6793C36.4127 17.6793 35.9452 17.6793 35.4531 17.6793C35.4531 17.2241 35.4531 16.7689 35.4531 16.2891C35.9083 16.2891 36.3758 16.2891 36.8802 16.2891Z" fill="#3763BA"/>
<path d="M38.3906 17.6789C38.3906 17.1991 38.3906 16.7562 38.3906 16.2764C38.8704 16.2764 39.3256 16.2764 39.8177 16.2764C39.8177 16.7439 39.8177 17.1868 39.8177 17.6789C39.3502 17.6789 38.895 17.6789 38.3906 17.6789Z" fill="#3763BA"/>
<path d="M41.3672 16.2637C41.8347 16.2637 42.2776 16.2637 42.7574 16.2637C42.7574 16.7312 42.7574 17.1987 42.7574 17.6908C42.3145 17.6908 41.8593 17.6908 41.3672 17.6908C41.3672 17.2356 41.3672 16.7681 41.3672 16.2637Z" fill="#3763BA"/>
<path d="M12.5077 25.061C8.86615 25.1471 5.8028 21.8992 5.95044 18.4668C6.17188 18.4668 6.39333 18.4668 6.62708 18.4668C6.86083 18.4668 7.08227 18.4668 7.35293 18.4668C7.41444 19.8939 7.89424 21.1242 8.89075 22.1207C9.87496 23.1049 11.0929 23.597 12.5077 23.6462C12.5077 24.1137 12.5077 24.5689 12.5077 25.061Z" fill="#3763BA"/>
<path d="M25.0938 31.7403C25.0938 27.2621 28.7599 23.6205 33.2381 23.6328C37.6916 23.6451 41.3209 27.299 41.3209 31.7526C41.3209 36.2184 37.6547 39.8723 33.1766 39.86C28.723 39.8477 25.0938 36.1938 25.0938 31.7403ZM33.1889 25.0969C29.5227 25.1092 26.5455 28.0987 26.5578 31.7772C26.5701 35.4187 29.5596 38.396 33.2012 38.396C36.8796 38.396 39.8569 35.4064 39.8569 31.7403C39.8569 28.0618 36.8673 25.0845 33.1889 25.0969Z" fill="#3763BA"/>
<path d="M38.3556 31.7773C38.3433 34.8284 35.6859 36.9813 33.25 36.846C33.25 36.3908 33.25 35.9356 33.25 35.4558C34.2342 35.3943 35.1077 35.0744 35.8089 34.3732C36.5225 33.6719 36.867 32.8108 36.9285 31.7773C37.3837 31.7773 37.8512 31.7773 38.3556 31.7773Z" fill="#3763BA"/>
</svg>
