<svg width="45" height="46" viewBox="0 0 45 46" fill="none" xmlns="http://www.w3.org/2000/svg">
<g clip-path="url(#clip0_80_437)">
<path d="M29.7444 45.7786C28.9543 45.5927 28.1526 45.4765 27.3857 45.2093C20.0194 42.688 18.0325 33.2302 23.749 27.9436C23.993 27.7112 24.0976 27.4904 24.0976 27.1651C24.086 25.4571 24.086 23.7375 24.0976 22.0296C24.0976 21.7972 24.1557 21.53 24.2835 21.3324C24.481 21.0187 24.818 20.9025 25.2014 21.0071C25.5964 21.1233 25.8288 21.3905 25.8288 21.7972C25.8404 23.8886 25.8521 25.98 25.8172 28.0714C25.8172 28.3386 25.5732 28.664 25.3524 28.8499C23.7142 30.2325 22.7033 31.9753 22.3083 34.0784C21.4369 38.7143 24.9225 43.42 29.6166 43.9544C34.2525 44.4773 38.2959 41.5609 39.1208 36.9947C39.7018 33.7763 38.6212 31.0691 36.1696 28.9312C35.7746 28.5826 35.6003 28.2224 35.6003 27.6996C35.6119 21.1117 35.6119 14.5121 35.6003 7.92422C35.6003 5.58882 34.1596 3.64846 32.0217 3.09076C28.9078 2.26581 25.9102 4.51988 25.8521 7.74994C25.8172 9.67867 25.8404 11.6074 25.8404 13.5478C25.8404 13.6756 25.8404 13.815 25.8404 13.9428C25.8288 14.5121 25.4919 14.8723 24.969 14.8723C24.4578 14.8723 24.1092 14.5005 24.0976 13.9312C24.086 12.6415 24.086 11.3518 24.0976 10.0505C24.1092 9.0164 24.0627 7.98231 24.1789 6.95985C24.5275 3.79951 27.2115 1.32468 30.3486 1.18526C33.6019 1.03421 36.4717 3.17209 37.1689 6.30919C37.2967 6.8669 37.3431 7.45946 37.3431 8.04041C37.3548 14.3959 37.3548 20.7631 37.3431 27.1186C37.3431 27.4788 37.4361 27.7228 37.7033 27.9784C40.7126 30.9529 41.7932 34.5199 40.5151 38.5633C39.2486 42.5834 36.3788 44.9188 32.2192 45.6856C32.0333 45.7205 31.859 45.7554 31.6731 45.7902C31.0225 45.7786 30.3834 45.7786 29.7444 45.7786Z" fill="#3763BA"/>
<path d="M45.0016 11.6182C44.7111 12.083 44.2812 12.2108 43.7468 12.1992C42.6314 12.1759 41.5159 12.1992 40.4005 12.1876C39.6685 12.1759 39.2386 11.5601 39.5291 10.9559C39.6802 10.6422 39.9358 10.4563 40.2843 10.4563C41.574 10.4447 42.8637 10.4563 44.1534 10.4563C44.595 10.4563 44.8273 10.7352 45.0016 11.0954C45.0016 11.2697 45.0016 11.4439 45.0016 11.6182Z" fill="#3763BA"/>
<path d="M45.0016 19.9844C44.7111 20.4492 44.2812 20.577 43.7468 20.5654C42.6314 20.5421 41.5159 20.5654 40.4005 20.5538C39.6685 20.5421 39.2386 19.9263 39.5291 19.3222C39.6802 19.0084 39.9358 18.8225 40.2843 18.8225C41.574 18.8109 42.8637 18.8225 44.1534 18.8225C44.595 18.8225 44.8273 19.1014 45.0016 19.4616C45.0016 19.6359 45.0016 19.8102 45.0016 19.9844Z" fill="#3763BA"/>
<path d="M10.6659 2.62612C10.6659 2.01032 10.6659 1.48747 10.6659 0.964618C10.6775 0.395292 11.0144 0.0118685 11.514 0.000249624C12.0253 -0.0113693 12.3971 0.383673 12.4087 0.964618C12.4203 1.48747 12.4087 1.9987 12.4087 2.6145C12.5946 2.44022 12.7108 2.32403 12.8386 2.21946C13.2453 1.84765 13.7332 1.83604 14.0818 2.17298C14.442 2.52155 14.4304 3.05602 14.047 3.45106C13.5706 3.93906 13.0826 4.41543 12.6062 4.90343C12.5016 5.008 12.4087 5.17066 12.4087 5.31009C12.3971 6.77407 12.3971 8.23805 12.3971 9.77174C12.5481 9.70203 12.6527 9.65556 12.7573 9.58584C13.8843 8.93518 15.0229 8.29614 16.15 7.62225C16.3359 7.50606 16.4985 7.2853 16.5566 7.07616C16.7658 6.4255 16.9052 5.76322 17.1027 5.11257C17.2073 4.74076 17.4862 4.53162 17.8696 4.50838C18.2414 4.48515 18.5435 4.63619 18.6713 4.97314C18.7526 5.18228 18.7294 5.44951 18.7294 5.69351C18.7294 5.83294 18.6713 5.97236 18.6132 6.20474C19.1244 5.91427 19.5543 5.65865 19.9842 5.41466C20.5419 5.10095 21.0415 5.1939 21.3088 5.64704C21.576 6.10017 21.4133 6.58817 20.8673 6.9135C20.4606 7.15749 20.0423 7.40149 19.624 7.63387C19.6008 7.64549 19.5892 7.68034 19.5427 7.7152C19.7286 7.77329 19.9145 7.83139 20.0888 7.88948C20.5768 8.06377 20.8208 8.48205 20.7046 8.93518C20.5768 9.39994 20.1701 9.66718 19.6705 9.5626C18.9734 9.41156 18.2995 9.20242 17.6023 9.03975C17.4629 9.0049 17.277 8.99328 17.1608 9.06299C15.8827 9.78336 14.6163 10.527 13.315 11.2822C13.4079 11.3635 13.4776 11.4332 13.5473 11.4797C14.7209 12.1652 15.906 12.8508 17.0911 13.5247C17.2305 13.606 17.4513 13.6176 17.614 13.5827C18.2181 13.4433 18.8223 13.269 19.4265 13.1064C20.1004 12.9205 20.5652 13.1296 20.7162 13.6873C20.844 14.1869 20.5419 14.6052 19.9261 14.7795C19.8216 14.8143 19.7054 14.8492 19.5078 14.9073C20.0539 15.221 20.5303 15.4999 20.9951 15.7903C21.3204 15.9879 21.4947 16.2899 21.425 16.6734C21.3669 17.0336 21.1577 17.3124 20.7975 17.3705C20.5652 17.4054 20.2747 17.3473 20.0539 17.2427C19.5892 17.0219 19.1477 16.7315 18.6132 16.4294C18.6713 16.6618 18.7061 16.8012 18.7294 16.9522C18.8572 17.5216 18.6248 17.9747 18.1484 18.1025C17.6488 18.2419 17.2073 17.9631 17.0446 17.3937C16.8704 16.7663 16.7193 16.1273 16.5334 15.4999C16.4869 15.3372 16.3707 15.1397 16.2313 15.0583C15.0229 14.338 13.803 13.6408 12.583 12.9437C12.5365 12.9205 12.4784 12.9088 12.3738 12.8624C12.3738 13.7338 12.3738 14.5471 12.3738 15.3721C12.3738 16.0808 12.1879 16.8709 12.4436 17.4867C12.6875 18.0909 13.3847 18.5208 13.8727 19.032C13.9656 19.125 14.0586 19.2179 14.1399 19.3225C14.3955 19.671 14.3607 20.1358 14.0702 20.4379C13.7681 20.7516 13.2917 20.7981 12.9199 20.5192C12.7456 20.3914 12.6062 20.2288 12.3738 20.0196C12.3738 20.6006 12.3738 21.1002 12.3738 21.5998C12.3738 22.2388 12.0369 22.6339 11.514 22.6455C10.9796 22.6571 10.6426 22.2504 10.631 21.623C10.631 21.135 10.6194 20.6354 10.6194 20.1474C10.6194 20.1358 10.5961 20.1358 10.5613 20.1009C10.4683 20.1939 10.3638 20.2752 10.2592 20.3798C9.81768 20.8097 9.32969 20.8446 8.94626 20.4728C8.57446 20.1126 8.60931 19.5781 9.05083 19.125C9.50397 18.6602 9.98034 18.2071 10.4335 17.7307C10.5381 17.6261 10.631 17.4635 10.631 17.324C10.6426 15.9646 10.6426 14.5936 10.6426 13.2342C10.6426 13.1296 10.6426 13.0367 10.6426 12.874C10.4916 12.9437 10.3754 12.9902 10.2708 13.0483C9.13216 13.7106 7.98189 14.3612 6.84324 15.0351C6.68058 15.1281 6.54115 15.3372 6.48306 15.5231C6.29715 16.104 6.16935 16.6966 6.00668 17.2892C5.8324 17.9398 5.42574 18.2419 4.89127 18.1141C4.36842 17.9863 4.14766 17.5099 4.31032 16.8593C4.33356 16.7547 4.3568 16.6385 4.40327 16.441C3.90366 16.7315 3.47376 16.9755 3.03224 17.2195C2.47453 17.5332 1.97492 17.4402 1.70769 16.9871C1.44045 16.5223 1.60312 16.046 2.16082 15.7206C2.60234 15.465 3.03224 15.2094 3.53185 14.9189C3.29948 14.8492 3.14843 14.8027 2.98577 14.7446C2.46292 14.5704 2.19568 14.1521 2.31187 13.6873C2.43968 13.1993 2.8812 12.9321 3.4389 13.0599C4.10118 13.2109 4.75184 13.4085 5.41412 13.5827C5.54192 13.6176 5.71621 13.6408 5.82078 13.5827C7.12209 12.8508 8.41179 12.1071 9.7712 11.3171C9.52721 11.1776 9.35292 11.0731 9.16702 10.9569C8.12132 10.3527 7.08724 9.73689 6.02992 9.15594C5.8324 9.05137 5.54192 9.01652 5.30955 9.06299C4.7286 9.17918 4.15928 9.36508 3.58995 9.51613C2.93929 9.69041 2.47453 9.48127 2.32349 8.95842C2.17244 8.44719 2.48615 8.01729 3.12519 7.83139C3.22976 7.79653 3.34595 7.77329 3.54347 7.7152C2.99739 7.40149 2.50939 7.12264 2.03302 6.83216C1.70769 6.63464 1.54502 6.33255 1.60312 5.94913C1.66121 5.58894 1.87035 5.31009 2.23054 5.25199C2.46292 5.21714 2.75339 5.27523 2.97415 5.3798C3.4389 5.60056 3.88042 5.89103 4.40327 6.1815C4.3568 5.92589 4.31032 5.72837 4.27546 5.54247C4.19413 5.06609 4.44975 4.64781 4.87965 4.52C5.3444 4.39219 5.79754 4.62457 5.94859 5.11257C6.14611 5.75161 6.32039 6.39064 6.47144 7.0413C6.54115 7.33178 6.6922 7.50606 6.94781 7.65711C8.05161 8.27291 9.13216 8.91195 10.2243 9.55099C10.3405 9.6207 10.4683 9.67879 10.6542 9.77174C10.6542 8.86547 10.6542 8.01729 10.6542 7.15749C10.6542 6.47198 10.8285 5.71675 10.5845 5.1358C10.3405 4.55486 9.68987 4.13658 9.2135 3.64858C8.65579 3.09088 8.56284 2.57965 8.94626 2.1846C9.35292 1.76632 9.8293 1.83604 10.4102 2.39374C10.48 2.46346 10.5264 2.49831 10.6659 2.62612Z" fill="#3763BA"/>
<path d="M33.4947 27.5022C33.4947 28.0832 33.5179 28.6641 33.483 29.2451C33.4714 29.5704 33.5876 29.7214 33.8548 29.8841C36.2019 31.3016 37.3638 33.393 37.0965 36.1118C36.8409 38.8074 35.3305 40.6781 32.7627 41.5843C29.6256 42.6997 26.1748 41.1544 24.8037 38.1219C23.4443 35.0894 24.6294 31.5107 27.5342 29.8841C27.8246 29.7214 27.906 29.5588 27.906 29.2451C27.8944 28.0715 27.8827 26.898 27.906 25.7129C27.9408 24.2722 29.0562 23.1103 30.4737 23.0057C31.9377 22.9011 33.2274 23.8771 33.425 25.3179C33.5179 26.0266 33.4366 26.7702 33.4366 27.4906C33.4714 27.5022 33.483 27.5022 33.4947 27.5022ZM31.7518 27.9902C31.7518 27.386 31.7518 26.7702 31.7518 26.166C31.7518 26.0615 31.7518 25.9569 31.7518 25.864C31.7402 25.2017 31.3219 24.7602 30.7177 24.7602C30.1136 24.7602 29.672 25.1901 29.6604 25.8523C29.6488 27.1769 29.6256 28.5014 29.672 29.8144C29.6953 30.5464 29.4513 30.953 28.7658 31.2435C27.0113 31.9987 25.9191 33.8113 26.0121 35.7052C26.105 37.6455 27.3599 39.3186 29.2073 39.9577C30.985 40.5735 32.9951 40.039 34.2383 38.6099C36.3413 36.2048 35.5047 32.4403 32.5535 31.1854C31.9726 30.9414 31.717 30.5812 31.7402 29.9654C31.7751 29.2915 31.7518 28.6409 31.7518 27.9902Z" fill="#3763BA"/>
<path d="M41.2232 6.274C41.5369 6.274 41.8622 6.25076 42.1759 6.274C42.6407 6.30886 42.966 6.65742 42.9776 7.09894C42.9893 7.54046 42.6639 7.94712 42.1876 7.98198C41.5369 8.01683 40.8862 8.01683 40.2356 7.98198C39.7592 7.95874 39.4223 7.5637 39.4339 7.11056C39.4455 6.65742 39.7825 6.30886 40.2704 6.274C40.5725 6.25076 40.8979 6.274 41.2232 6.274Z" fill="#3763BA"/>
<path d="M41.2113 14.6392C41.525 14.6392 41.8503 14.616 42.164 14.6392C42.6404 14.6741 42.9774 15.0459 42.9774 15.499C42.9774 15.9289 42.652 16.3124 42.1989 16.3472C41.5482 16.3821 40.8976 16.3821 40.2469 16.3588C39.7589 16.3356 39.4336 15.9522 39.4336 15.499C39.4336 15.0459 39.7705 14.6857 40.2585 14.6509C40.5722 14.616 40.886 14.6392 41.2113 14.6392Z" fill="#3763BA"/>
<path d="M41.1997 24.7254C40.886 24.7254 40.5606 24.7486 40.2469 24.7254C39.7589 24.6789 39.4336 24.3187 39.4336 23.8656C39.4336 23.4125 39.7705 23.0407 40.2469 23.0174C40.886 22.9942 41.525 22.9942 42.164 23.0174C42.6404 23.0407 42.9774 23.4241 42.9774 23.8656C42.9774 24.3071 42.6404 24.6789 42.164 24.7254C41.8387 24.7486 41.525 24.7254 41.1997 24.7254Z" fill="#3763BA"/>
<path d="M24.9809 18.7764C24.5046 18.7764 24.1095 18.4046 24.0979 17.9398C24.0863 17.4634 24.5046 17.0335 24.9809 17.0452C25.4457 17.0568 25.8291 17.4518 25.8291 17.9166C25.8291 18.3929 25.4573 18.7648 24.9809 18.7764Z" fill="#3763BA"/>
<path d="M8.45889 45.4764C7.95928 45.3951 7.44805 45.337 6.94843 45.2092C3.90428 44.4075 1.8245 42.5136 0.732323 39.574C-0.197189 37.0295 0.174616 34.6127 1.60374 32.347C1.94069 31.801 2.31249 31.2781 2.6843 30.7553C3.81133 29.1867 4.24123 27.409 4.1599 25.5151C4.12504 24.7483 3.98561 23.9931 3.86943 23.2378C3.82295 22.9474 3.85781 22.6917 4.09019 22.5058C4.33418 22.3083 4.60142 22.2967 4.86865 22.4361C6.12349 23.0635 7.21567 23.9233 8.16842 24.9574C9.70211 26.6189 10.6665 28.5709 11.0499 30.8017C11.1312 31.2781 11.1777 31.7545 11.2358 32.2657C11.3288 32.1728 11.4217 32.0914 11.503 32.0101C12.2234 31.1735 12.6649 30.1859 13.0135 29.1518C13.1413 28.78 13.2343 28.4082 13.3272 28.0248C13.3969 27.7111 13.5596 27.4787 13.8849 27.4206C14.1986 27.3625 14.431 27.502 14.6169 27.7576C16.1506 29.9071 17.266 32.2309 17.6959 34.8567C18.2188 38.0403 17.4171 40.8288 15.0468 43.0829C13.5944 44.4772 11.8284 45.244 9.8183 45.4299C9.74859 45.4415 9.6905 45.4532 9.62078 45.4648C9.24898 45.4764 8.85394 45.4764 8.45889 45.4764ZM14.2683 29.6979C14.2219 29.8257 14.187 29.9187 14.1522 30.0116C13.8384 30.8714 13.4434 31.6848 12.9089 32.4284C12.3861 33.1487 11.747 33.7529 10.8989 34.0899C10.3179 34.3223 9.8764 33.9969 9.8764 33.3811C9.8764 32.8467 9.8764 32.3122 9.8183 31.7777C9.52783 28.8498 8.18004 26.5027 5.89111 24.6786C5.76331 24.574 5.6355 24.4927 5.47283 24.3765C5.49607 24.725 5.51931 25.0271 5.53093 25.3292C5.61226 27.7576 5.0197 29.9652 3.53248 31.9288C3.12582 32.4632 2.78887 33.0442 2.46354 33.6251C1.96393 34.5198 1.61536 35.4841 1.60374 36.5182C1.56888 38.7955 2.42868 40.701 4.11342 42.2463C4.29933 42.409 4.49685 42.5601 4.68275 42.7111C4.69437 42.6182 4.67113 42.5601 4.64789 42.5136C4.14828 41.2471 4.17152 40.0039 4.83379 38.7955C5.04293 38.4237 5.29855 38.0752 5.50769 37.7034C5.70521 37.3664 5.92597 37.0295 6.05378 36.6693C6.35587 35.8443 6.33263 35.0078 6.14673 34.1596C6.12349 34.0434 6.11187 33.904 6.14673 33.7878C6.26292 33.3463 6.71606 33.172 7.15757 33.4044C8.28461 33.9853 9.17926 34.8219 9.76021 35.9605C10.0274 36.4834 10.2017 37.0527 10.4225 37.5872C10.4457 37.5291 10.5038 37.4477 10.5387 37.3548C10.6549 37.0295 10.7478 36.6925 10.864 36.3672C10.9221 36.2161 11.0034 36.0419 11.1196 35.9373C11.4217 35.67 11.8516 35.7514 12.1072 36.0999C12.7695 37.0062 13.2575 38.0054 13.5596 39.086C13.792 39.9342 13.8849 40.8056 13.699 41.677C13.6293 42.0256 13.5015 42.3625 13.3969 42.746C13.548 42.6298 13.6874 42.5252 13.8152 42.4206C16.0925 40.4338 16.8594 37.9241 16.3481 34.9845C16.0344 33.172 15.314 31.4989 14.3961 29.9187C14.3613 29.8257 14.3264 29.7793 14.2683 29.6979ZM7.68043 35.4028C7.65719 35.4261 7.64557 35.4377 7.64557 35.4493C7.63395 35.4958 7.63395 35.5539 7.63395 35.612C7.57586 36.7041 7.23891 37.7034 6.56501 38.5748C6.44882 38.7258 6.34425 38.8885 6.23968 39.0628C5.93759 39.574 5.68197 40.0968 5.67036 40.701C5.64712 42.3277 6.80901 43.7452 8.42404 44.0589C10.0158 44.3726 11.6309 43.4663 12.2234 41.9443C12.572 41.0264 12.479 40.1085 12.2002 39.2022C12.0724 38.8188 11.9097 38.4353 11.747 38.0171C11.6309 38.2262 11.5495 38.3656 11.4682 38.5051C11.1429 39.0511 10.7246 39.5043 10.1204 39.7599C9.91125 39.8412 9.71373 39.8529 9.51621 39.7483C9.24898 39.6089 9.14441 39.3765 9.15603 39.0744C9.17926 38.2843 9.05146 37.5291 8.72613 36.8087C8.44727 36.2742 8.12194 35.8095 7.68043 35.4028Z" fill="#3763BA" stroke="#3763BA" stroke-width="0.464756" stroke-miterlimit="10"/>
</g>
<defs>
<clipPath id="clip0_80_437">
<rect width="45" height="45.7785" fill="white"/>
</clipPath>
</defs>
</svg>
