<svg width="20" height="20" viewBox="0 0 20 20" fill="none" xmlns="http://www.w3.org/2000/svg">
<rect width="20" height="20" fill="white"/>
<path fill-rule="evenodd" clip-rule="evenodd" d="M9.3798 3.44815C11.3107 1.51728 14.4412 1.51728 16.3721 3.44815L16.5518 3.6279C18.4827 5.55877 18.4827 8.68933 16.5518 10.6202L15.0689 12.1031C14.776 12.396 14.3012 12.396 14.0083 12.1031C13.7154 11.8102 13.7154 11.3353 14.0083 11.0425L15.4912 9.55954C16.8363 8.21446 16.8363 6.03365 15.4912 4.68856L15.3114 4.50881C13.9664 3.16373 11.7855 3.16373 10.4405 4.50881L8.95755 5.99172C8.66465 6.28462 8.18978 6.28462 7.89689 5.99172C7.60399 5.69883 7.60399 5.22396 7.89689 4.93106L9.3798 3.44815ZM12.7803 7.21967C13.0732 7.51256 13.0732 7.98744 12.7803 8.28033L8.28033 12.7803C7.98744 13.0732 7.51256 13.0732 7.21967 12.7803C6.92678 12.4874 6.92678 12.0126 7.21967 11.7197L11.7197 7.21967C12.0126 6.92678 12.4874 6.92678 12.7803 7.21967ZM5.99172 7.89689C6.28462 8.18978 6.28462 8.66465 5.99172 8.95755L4.50881 10.4405C3.16373 11.7855 3.16373 13.9664 4.50881 15.3114L4.68856 15.4912C6.03364 16.8363 8.21446 16.8363 9.55954 15.4912L11.0425 14.0083C11.3353 13.7154 11.8102 13.7154 12.1031 14.0083C12.396 14.3012 12.396 14.776 12.1031 15.0689L10.6202 16.5518C8.68933 18.4827 5.55877 18.4827 3.6279 16.5518L3.44815 16.3721C1.51728 14.4412 1.51728 11.3107 3.44815 9.3798L4.93106 7.89689C5.22396 7.60399 5.69883 7.60399 5.99172 7.89689Z" fill="#3763BA"/>
</svg>
