<svg width="989" height="988" viewBox="0 0 989 988" fill="none" xmlns="http://www.w3.org/2000/svg">
<path d="M514.251 165.345C572.182 144.729 634.311 80.3584 591.072 7.57305C658.241 20.6155 720.37 47.5419 774.944 84.9864C798.872 177.967 736.743 303.343 612.482 344.574C512.57 377.811 188.488 352.988 66.7477 743C24.3482 669.794 0 584.807 0 493.931C0 234.344 198.983 21.0362 452.959 0C455.058 15.1461 452.12 33.658 433.23 41.231C410.559 49.6455 223.751 90.0351 223.751 287.355C321.143 198.582 417.278 200.686 514.251 165.345Z" fill="white"/>
<path d="M474.75 822.655C416.818 843.271 354.688 907.642 397.927 980.427C330.76 967.384 268.63 940.458 214.056 903.014C190.128 810.033 252.258 684.657 376.517 643.426C476.429 610.189 800.511 635.012 922.252 245C964.651 318.206 989 403.193 989 494.069C989 753.656 790.018 966.964 536.041 988C533.942 972.854 536.88 954.342 555.77 946.769C578.441 938.354 765.248 897.965 765.248 700.645C667.857 789.418 571.722 787.314 474.75 822.655Z" fill="white"/>
</svg>
