<svg width="18" height="17" viewBox="0 0 18 17" fill="none" xmlns="http://www.w3.org/2000/svg">
<path fill-rule="evenodd" clip-rule="evenodd" d="M17.5903 0.0867712C17.8417 0.222779 18 0.497154 18 0.796878V11.9531C18 12.2081 17.8852 12.4476 17.6911 12.5976L12.1911 16.8476C11.9281 17.0508 11.5719 17.0508 11.3089 16.8476L6.25 12.9385L1.19113 16.8476C0.96299 17.0239 0.661045 17.0492 0.409667 16.9132C0.158289 16.7772 0 16.5028 0 16.2031V5.04688C0 4.79193 0.114813 4.55237 0.308871 4.40242L5.80887 0.152417C6.07186 -0.050801 6.42814 -0.050801 6.69113 0.152417L11.75 4.06154L16.8089 0.152417C17.037 -0.0238725 17.339 -0.049237 17.5903 0.0867712ZM11 5.45266L7 2.36176V11.5473L11 14.6382V5.45266ZM12.5 14.6382L16.5 11.5473V2.36176L12.5 5.45266V14.6382ZM5.5 11.5473V2.36176L1.5 5.45266V14.6382L5.5 11.5473Z" fill="#3763BA"/>
</svg>
