<svg width="177" height="46" viewBox="0 0 177 46" fill="none" xmlns="http://www.w3.org/2000/svg">
<path fill-rule="evenodd" clip-rule="evenodd" d="M70.1105 25.0038C71.5192 23.7066 72.2235 21.8648 72.2235 19.4783C72.2235 17.3089 71.545 15.6345 70.1897 14.4569C68.8347 13.2812 66.8047 12.6924 64.1036 12.6924H55.7422V34.0327H61.5205V26.9542H64.1036C66.6996 26.9542 68.7001 26.3047 70.1105 25.0038ZM63.5339 22.253H61.5205V17.3476H63.9727C65.5731 17.3476 66.3714 18.0689 66.3714 19.5096C66.3714 20.3652 66.1151 21.0368 65.6044 21.5244C65.0918 22.0101 64.4023 22.253 63.5339 22.253Z" fill="#1B1B19"/>
<path d="M77.8504 34.3251C76.4842 34.3251 75.2378 34.1798 74.1058 33.8872V29.3038C75.0221 29.6626 76.1837 29.8429 77.5868 29.8429C78.1934 29.8429 78.7023 29.7049 79.1171 29.4271C79.5319 29.1492 79.8693 28.6616 80.133 27.9606L73.1562 12.6904H79.3863L82.0192 19.2022C82.1169 19.4543 82.2367 19.7579 82.3787 20.1075C82.5188 20.4571 82.6589 20.8195 82.7954 21.1949C82.9318 21.5684 83.059 21.9419 83.1752 22.3099C83.2932 22.6816 83.3835 23.0018 83.4536 23.2741H83.6583C83.9901 21.9511 84.4824 20.4037 85.1351 18.6318L87.3144 12.6904H93.5463L87.0526 27.6699C86.2413 29.5356 85.4485 30.9119 84.6668 31.7933C83.8869 32.6747 82.9539 33.315 81.8661 33.7198C80.7783 34.1246 79.4398 34.3251 77.8504 34.3251Z" fill="#1B1B19"/>
<path d="M103.73 17.1154C102.355 17.1154 101.282 17.6784 100.511 18.8027C99.742 19.9251 99.3548 21.4762 99.3548 23.4505C99.3548 27.5574 100.922 29.6108 104.053 29.6108C104.997 29.6108 105.915 29.4802 106.802 29.2171C107.689 28.954 108.581 28.6375 109.479 28.2676V33.1436C107.694 33.933 105.675 34.3268 103.422 34.3268C100.196 34.3268 97.7194 33.392 95.9992 31.5244C94.279 29.655 93.418 26.9539 93.418 23.4211C93.418 21.2131 93.8347 19.27 94.668 17.5975C95.5033 15.9231 96.7017 14.6351 98.267 13.7353C99.8324 12.8356 101.672 12.3848 103.789 12.3848C106.099 12.3848 108.308 12.8871 110.414 13.888L108.646 18.4292C107.855 18.0593 107.065 17.7484 106.274 17.4944C105.485 17.2424 104.637 17.1154 103.73 17.1154Z" fill="#1B1B19"/>
<path d="M133.632 34.0062L126.946 34.0228L122.761 27.362L118.651 34.0449L112.113 34.0596L119.18 23.1226L112.484 12.7174L118.891 12.7009L122.77 19.2899L126.469 12.6825L133.066 12.6641L126.319 23.5587L133.632 34.0062Z" fill="#1B1B19"/>
<path d="M136.395 12.6914H141.544V21.8601C141.544 22.8335 141.465 24.7784 141.31 27.6984H141.426L149.955 12.6914H157.094V34.0354H151.974V25.1004C151.974 23.748 152.061 21.724 152.236 19.0265H152.12L143.519 34.0354H136.395V12.6914Z" fill="#1B1B19"/>
<path d="M171.191 34.0336H165.413V17.4055H160.191V12.6914H176.398V17.4055H171.191V34.0336Z" fill="#1B1B19"/>
<path d="M22.586 7.84839C25.1303 6.94679 27.859 4.13159 25.96 0.948387C28.91 1.51879 31.6388 2.69639 34.0356 4.33399C35.0866 8.40039 32.3578 13.8836 26.9003 15.6868C22.5122 17.1404 8.27844 16.0548 2.93157 33.1116C1.06937 29.91 0 26.1932 0 22.2188C0 10.866 8.73938 1.53719 19.894 0.617188C19.9862 1.27959 19.8572 2.08919 19.0275 2.42039C18.0318 2.78839 9.82719 4.55479 9.82719 13.1844C14.1047 9.30199 18.3269 9.39399 22.586 7.84839Z" fill="#3763BA"/>
<path d="M20.8632 36.5855C18.3188 37.4871 15.59 40.3023 17.4891 43.4855C14.5391 42.9151 11.8103 41.7375 9.41347 40.0999C8.36254 36.0335 11.0913 30.5503 16.5488 28.7471C20.9369 27.2935 35.1706 28.3791 40.5175 11.3223C42.3797 14.5239 43.4491 18.2407 43.4491 22.2151C43.4491 33.5679 34.7098 42.8967 23.5551 43.8167C23.4629 43.1543 23.5919 42.3447 24.4216 42.0135C25.4173 41.6455 33.6219 39.8791 33.6219 31.2495C29.3444 35.1319 25.1222 35.0399 20.8632 36.5855Z" fill="#3763BA"/>
</svg>
