<svg width="204" height="156" viewBox="0 0 204 156" fill="none" xmlns="http://www.w3.org/2000/svg">
<path d="M203.315 69.1279V104.816L201.797 105.666L201.706 105.636L201.736 105.514V69.5531C202.738 69.3709 203.315 69.1279 203.315 69.1279Z" fill="#3763BA"/>
<path d="M203.316 31.4055V69.1285C203.316 69.1285 202.738 69.3411 201.706 69.5537C200.643 69.7663 199.124 69.9485 197.362 69.7967V31.4966L188.159 32.0129C188.159 32.0129 188.251 31.7396 188.494 31.284C189.223 29.8261 191.227 26.6673 194.933 26.6673V23.873H196.755V26.6673C197.97 26.6673 199.003 26.9711 199.853 27.4267C200.855 27.9734 201.615 28.7023 202.131 29.4009C202.951 30.4336 203.316 31.4055 203.316 31.4055Z" fill="#3763BA"/>
<path d="M201.007 14.7911L202.131 29.4004C201.584 28.7018 200.825 27.9728 199.853 27.4261L199.215 17.2513L190.802 16.5223L186.853 22.7487H178.714C179.017 22.0198 179.26 21.2605 179.442 20.4404H185.73L189.162 13.8799L201.007 14.7911Z" fill="#3763BA"/>
<path d="M201.706 69.5537V105.515L201.675 105.637L179.837 101.84L190.225 98.9242C190.225 98.9242 195.175 98.2256 197.332 92.151V69.8271C199.154 69.9486 200.673 69.7663 201.706 69.5537Z" fill="#3763BA"/>
<path d="M121.916 35.5964L132.911 35.0193L188.159 31.9821L197.362 31.4961V69.7962V92.1201L97.2234 118.757V36.9632L121.916 35.5964Z" fill="#3763BA"/>
<path d="M97.2232 118.758L197.362 92.1207C195.175 98.1953 190.255 98.8939 190.255 98.8939L179.868 101.81L143.025 112.106L139.988 112.956L117.573 119.213L48.3534 138.561H48.2623V91.7866L50.8136 91.3311L53.5472 110.101L81.5813 104.786V115.417L97.2232 118.758Z" fill="#3763BA"/>
<path d="M179.776 17.2204C179.776 18.3138 179.655 19.3769 179.412 20.4095C179.23 21.1992 178.987 21.9889 178.683 22.7179C177.012 26.6663 173.611 29.3999 169.693 29.3999L144.635 31.8297C149.434 30.8881 153.079 25.8766 153.079 19.8325C153.079 13.1201 148.553 7.68335 142.995 7.68335L169.693 5.07129C175.281 5.07129 179.776 10.508 179.776 17.2204Z" fill="#3763BA"/>
<path d="M142.995 7.68457C148.584 7.68457 153.079 13.1213 153.079 19.8337C153.079 25.8779 149.404 30.8894 144.605 31.8309L142.965 31.9828C137.406 31.9828 132.881 26.5461 132.881 19.8337C132.881 13.1213 137.437 7.68457 142.995 7.68457Z" fill="#3763BA"/>
<path d="M142.995 112.137V123.557L140.049 124.468H139.988V113.018V112.987L142.995 112.137Z" fill="#3763BA"/>
<path d="M139.988 113.018V124.468L117.573 119.244L139.988 112.987V113.018Z" fill="#3763BA"/>
<path d="M132.456 34.2608L121.552 34.8379C116.601 24.2986 106.062 20.8968 106.062 20.8968C106.244 19.8338 106.335 18.7403 106.335 17.6165C106.335 16.1283 106.183 14.7008 105.88 13.334C105.88 13.3644 122.402 17.2521 132.456 34.2608Z" fill="#3763BA"/>
<path d="M121.582 34.8376L81.5511 36.9941V102.873L55.2786 107.854L52.8184 90.9665L58.7715 89.873V93.1229C58.7715 93.1229 61.2013 94.3986 66.0002 94.6416V102.296C66.0002 102.296 67.0633 103.541 68.8856 103.541C70.708 103.541 71.5584 102.083 71.5584 102.083V94.4593C73.6541 94.2467 76.0232 93.8215 78.6353 93.1229V38.3608C78.6353 38.3608 78.0278 36.5688 76.6003 34.8376L92.5156 34.3212C99.2584 34.3212 104.847 28.5504 106.123 20.8965C106.092 20.8965 116.632 24.3286 121.582 34.8376Z" fill="#3763BA"/>
<path d="M106.335 17.6162C106.335 18.7399 106.244 19.8334 106.062 20.8964C104.786 28.5504 99.1975 34.3212 92.4548 34.3212L76.5394 34.8375C81.3991 32.1343 84.649 25.7561 84.649 18.8918C84.649 9.47625 78.3011 1.79194 70.4953 1.79194L92.4852 0.911133C98.9242 0.911133 104.331 6.19599 105.88 13.364C106.183 14.7307 106.335 16.1583 106.335 17.6162Z" fill="#3763BA"/>
<path d="M97.2233 36.9648V118.759L81.5509 115.418V104.818V102.874V36.9952L97.2233 36.9648Z" fill="#3763BA"/>
<path d="M84.7099 18.8921C84.7099 25.7563 81.4296 32.1346 76.6003 34.8378C75.2336 33.1369 73.0467 31.4968 69.9183 31.4968V27.4268H67.4885V31.4664C65.7876 31.4664 64.3905 31.9523 63.2363 32.6509C59.2879 29.7048 56.6758 24.4503 56.6758 18.4365C56.6758 9.20315 62.8719 1.73145 70.5562 1.73145C78.362 1.76182 84.7099 9.44613 84.7099 18.8921Z" fill="#3763BA"/>
<path d="M81.5509 102.873V104.817L53.4865 110.132L50.7833 91.3615L52.8183 90.9971L55.2481 107.854L81.5509 102.873Z" fill="#3763BA"/>
<path d="M63.2057 32.6803C64.3599 31.9817 65.757 31.4957 67.4579 31.4957V27.4258H69.8877V31.4654C73.0161 31.4654 75.1726 33.1359 76.5698 34.8064C77.9973 36.568 78.6047 38.3296 78.6047 38.3296V93.0917C75.9927 93.7903 73.6236 94.2155 71.5279 94.4281C69.4322 94.6711 67.5794 94.7015 65.9697 94.6103C61.1708 94.3674 58.7409 93.0917 58.7409 93.0917V89.9026V82.4309V42.7033V38.36C58.7713 38.36 60.0166 34.6545 63.2057 32.6803Z" fill="#3763BA"/>
<path d="M71.5279 94.4902V102.114C71.5279 102.114 70.6774 103.572 68.8551 103.572C67.0327 103.572 65.9697 102.326 65.9697 102.326V94.6725C67.5794 94.7636 69.4322 94.7332 71.5279 94.4902Z" fill="#3763BA"/>
<path d="M58.7714 82.4023V89.9044L52.8183 90.9978L51.7553 83.7084L58.7714 82.4023Z" fill="#3763BA"/>
<path d="M58.7714 42.7051V82.4023L51.7553 83.7083L50.0848 72.2578L49.6899 59.7746L51.816 57.4359V43.9807L58.7714 42.7051Z" fill="#3763BA"/>
<path d="M51.7554 83.707L52.8184 90.9965L50.7834 91.361L49.7204 84.0715L51.7554 83.707Z" fill="#3763BA"/>
<path d="M51.816 43.9795V57.4346L49.69 59.7733H47.8676L45.8934 58.1332L45.4681 44.1314L45.3466 40.7296L51.816 40.3955V43.9795Z" fill="#3763BA"/>
<path d="M50.0848 72.2566L51.7553 83.7072L49.7204 84.0716L48.3232 74.5042L47.8676 59.7734H49.69L50.0848 72.2566Z" fill="#3763BA"/>
<path d="M49.7203 84.0723L50.7834 91.3617L48.2321 91.8173V90.3594V89.9038L44.9822 89.5697V84.9531L49.7203 84.0723Z" fill="#3763BA"/>
<path d="M48.3232 74.5046L49.7203 84.072L44.9822 84.9528V44.1318H45.4681L45.8934 58.1337L47.8676 59.7738L48.3232 74.5046Z" fill="#3763BA"/>
<path d="M48.2321 138.591V154.506L45.7416 155.569V118.757V90.5715L48.2321 89.9033V90.3589V91.8168V138.591Z" fill="#3763BA"/>
<path d="M45.7413 118.757V155.569L29.9475 148.218L33.5011 147.216L33.5922 147.186C34.6249 146.548 36.1132 145.12 37.0244 144.148C41.7625 139.015 44.9517 129.57 44.9517 118.757H45.7413Z" fill="#3763BA"/>
<path d="M45.7416 90.5719V118.758H44.9822C44.9822 104.574 39.181 92.7283 31.8612 89.9036C32.1649 89.691 32.4383 89.4784 32.742 89.2051L45.7416 90.5719Z" fill="#3763BA"/>
<path d="M44.9822 84.9536V89.5703L33.5924 88.3857C37.6624 84.1639 41.1856 75.7506 41.1856 66.2136C41.1856 54.9757 37.0246 45.5297 31.3448 42.7051L44.9518 44.1326V84.9536H44.9822Z" fill="#3763BA"/>
<path d="M18.5884 92.4243C18.6795 92.4243 18.7706 92.4243 18.8921 92.4243C19.5907 92.4243 20.2893 92.3331 20.9878 92.1509L28.4899 91.2701C29.5833 91.2093 30.7375 90.7234 31.8917 89.9033C39.2115 92.728 45.0127 104.604 45.0127 118.757C45.0127 129.57 41.8236 139.016 37.0854 144.149C36.1742 145.151 34.686 146.549 33.6533 147.186L33.5622 147.217L29.9782 148.219L19.5603 151.135C27.3357 148.978 33.2888 136.738 33.2888 121.977C33.2888 106.183 26.4853 93.3051 17.9506 92.5154V92.4243C18.1632 92.3939 18.3758 92.4243 18.5884 92.4243Z" fill="#3763BA"/>
<path d="M31.3752 42.7049C37.0549 45.5296 41.216 54.9755 41.216 66.2134C41.216 75.7505 37.6927 84.1334 33.6228 88.3856C33.3494 88.6893 33.0457 88.9627 32.7723 89.2056C32.499 89.4486 32.1952 89.6916 31.8915 89.9042C30.7374 90.7243 29.5832 91.2102 28.4898 91.271L20.9573 92.1518C27.6393 90.3294 32.742 79.8204 32.742 67.155C32.742 53.1835 26.5459 41.8545 18.8616 41.8545H27.8216C29.0669 41.8545 30.2514 42.1582 31.3752 42.7049Z" fill="#3763BA"/>
<path d="M18.8615 41.8545C26.5154 41.8545 32.7418 53.1835 32.7418 67.155C32.7418 79.8204 27.6392 90.3294 20.9572 92.1518L18.5881 92.4251C18.3755 92.4251 18.1629 92.3948 17.9503 92.3644C15.4293 92.0607 13.121 90.542 11.1468 88.1426C7.4413 83.5867 5.01147 75.9024 5.01147 67.155C5.01147 53.1835 11.2075 41.8545 18.8615 41.8545Z" fill="#3763BA"/>
<path d="M17.92 92.4846C26.4548 93.2743 33.2583 106.152 33.2583 121.946C33.2583 136.707 27.3052 148.948 19.5298 151.104C18.7401 151.317 17.92 151.438 17.0696 151.438C8.17035 151.468 0.911255 138.256 0.911255 121.946C0.911255 109.493 5.16344 98.8325 11.1469 94.4892C12.9996 93.1528 15.0042 92.4238 17.0999 92.4238C17.3733 92.4238 17.6466 92.4542 17.92 92.4846Z" fill="#3763BA"/>
<path d="M17.9504 92.3644V92.4555C17.677 92.4251 17.4037 92.4251 17.1303 92.4251C15.0346 92.4251 13.03 93.1541 11.1773 94.4905V88.1426C13.1211 90.5724 15.4295 92.0607 17.9504 92.3644Z" fill="#3763BA"/>
</svg>
