<?xml version="1.0" encoding="utf-8"?>
<!-- Generator: Adobe Illustrator 24.3.0, SVG Export Plug-In . SVG Version: 6.00 Build 0)  -->
<svg width="204" height="156" version="1.1" id="Layer_1" xmlns="http://www.w3.org/2000/svg" xmlns:xlink="http://www.w3.org/1999/xlink" x="0px" y="0px"
	 viewBox="0 0 204 156" style="enable-background:new 0 0 204 156;" xml:space="preserve">
<style type="text/css">
	.st0{fill:#3763B9;}
</style>
<g>
	<path class="st0" d="M11.2,94.7c0-1.9,0-3.7,0-5.6c0-0.5-0.3-0.8-0.5-1.1c-2.7-3.7-4.1-7.9-4.9-12.4c-0.7-3.6-0.9-7.2-0.6-10.7
		c0.5-6.9,1.9-13.5,6.5-19c2.1-2.5,4.8-4,8.2-3.9c2.7,0.1,5.3,0,8,0c0.8,0,1.6,0.1,2.3,0.4c1.8,0.8,3.7,0.7,5.6,1
		c2.8,0.4,5.6,0.6,8.4,0.9c0.4,0,0.8,0,1.3,0c0-1.1,0-2.1,0-3.3c2.2-0.2,4.3-0.4,6.6-0.3c0,1.1,0,2.2,0,3.5c2.3-0.4,4.5-0.8,6.7-1.2
		c0.4-1.9-0.4-3.8,0.6-5.6c0.9-1.6,2-3.1,3.6-4.3c-0.8-0.9-1.7-1.7-2.4-2.6c-2.7-3.5-3.9-7.6-3.8-12c0.1-4.3,1.3-8.2,4-11.5
		c2.5-3.1,5.6-4.9,9.6-5c7.2-0.1,14.3-0.6,21.5-0.8c5.4-0.1,9.1,2.4,11.9,6.7c1.1,1.7,1.8,3.6,2.3,5.6c11.5,3.7,20.4,10.7,26.8,21.3
		c-13.5,0.7-26.7,1.4-39.9,2.1c2.4,0.3,4.9,0.2,7.3,0.1c1.9-0.1,3.7-0.3,5.6-0.4c6.3-0.3,12.5-0.6,18.8-0.9
		c5.6-0.3,11.2-0.6,16.8-0.9c6.9-0.4,13.7-0.8,20.6-1.1c5.5-0.3,10.9-0.6,16.4-0.9c3.3-0.2,6.6-0.4,9.8-0.6c2.2-3.8,3.7-5,6.6-5.3
		c0.3-0.8-0.1-1.8,0.3-2.7c0.6-0.2,1.1-0.1,1.8-0.1c0,0.9,0,1.8,0,2.8c1,0,1.9,0.2,2.9,0.6c0-3.3-0.5-6.4-0.5-9.7
		c-2.9-0.2-5.6-0.5-8.4-0.7c-1.3,2.1-2.6,4.1-4,6.2c-2.7,0-5.4,0-8.1,0c-0.1,0.2-0.2,0.3-0.3,0.5c-1.9,3.9-5,6-9.4,6.3
		c-4.6,0.3-9.2,0.9-13.9,1.3c-4,0.4-7.9,0.8-11.9,1.1c-3.1,0.2-5.5-1.1-7.5-3.4c-4.6-5.3-4.2-14.6,1.4-19.1c1.5-1.2,3.2-1.9,5.2-2
		c3.4-0.3,6.9-0.7,10.3-1c3.5-0.3,6.9-0.6,10.4-1c1.7-0.2,3.4-0.2,5.1-0.5c3.4-0.6,6.1,0.7,8.3,3.2c2.8,3.2,3.7,7,3,11.2
		c0,0.2,0,0.4,0,0.6c2,0,4,0,6.1,0c1.1-2.1,2.2-4.3,3.4-6.5c4,0.3,7.9,0.6,11.8,0.9c0.6,1.6,0.4,3.2,0.5,4.7
		c0.4,3.2,0.5,6.3,0.7,9.5c0,0.2,0,0.5,0.2,0.6c1.1,1.1,1,2.5,1,3.9c0,23.4,0,46.8,0,70.2c0,0.4,0,0.9,0,1.2
		c-1.1,1.3-2.4,0.9-3.7,0.6c-6.4-1.1-12.9-2.2-19.3-3.4c-0.8-0.1-1.4,0.1-2.1,0.3c-11.6,3.2-23.1,6.4-34.7,9.7
		c-0.1,0-0.3,0.1-0.5,0.2c0,3.8,0,7.5,0,11.2c-1.9,1.2-3.9,1-5.9,0.5c-6.3-1.5-12.5-3-18.8-4.5c-0.6-0.1-1.2-0.1-1.9,0.1
		c-22.4,6.3-44.9,12.5-67.3,18.8c-0.3,0.1-0.6,0.2-0.9,0.3c0,5.2,0,10.5,0,15.7c-0.8,0.6-1.7,0.8-2.6,1.2
		c-5.3-2.4-10.5-4.9-15.8-7.3c-3.4,0.9-6.7,1.8-10,2.8c-3.8,1.1-7,0.1-9.9-2.5c-3.7-3.3-5.7-7.6-7.2-12.1c-2-6.1-2.4-12.4-2-18.7
		c0.4-5.9,1.7-11.6,4.6-16.9c0.7-1.3,1.5-2.4,2.4-3.6C9,96.6,10.1,95.6,11.2,94.7z M46.8,90.6c-1.5-0.7-12.7-1.7-13.4-1.1
		C38,89.8,42.4,90.6,46.8,90.6z"/>
</g>
</svg>
