<svg width="160" height="205" viewBox="0 0 160 205" fill="none" xmlns="http://www.w3.org/2000/svg">
<g clip-path="url(#clip0_88_3118)">
<path d="M127 23.0176V171.42L152.539 164.518V27.8493L127 23.0176Z" fill="#E54D24"/>
<path d="M121.507 189.059V15.0156" stroke="#3763BA" stroke-width="3" stroke-miterlimit="10"/>
<path d="M121.507 189.058V202.562L118.879 203.227L3.29295 179.33V176.943L5.49833 175.675V166.611" stroke="#3763BA" stroke-width="3" stroke-miterlimit="10"/>
<path d="M19.8786 169.392V175.373L38.0352 178.999V172.896" stroke="#3763BA" stroke-width="3" stroke-miterlimit="10"/>
<path d="M77.0671 180.568V186.58L95.2237 190.206V184.073" stroke="#3763BA" stroke-width="3" stroke-miterlimit="10"/>
<path d="M10.4228 26.4955L99.242 21.0576" stroke="#3763BA" stroke-width="3" stroke-miterlimit="10"/>
<path d="M58.1856 38.8512L99.2418 36.3438" stroke="#3763BA" stroke-width="3" stroke-miterlimit="10"/>
<path d="M10.4228 41.7816L53.201 39.1533" stroke="#3763BA" stroke-width="3" stroke-miterlimit="10"/>
<path d="M58.307 56.433L99.2423 55.1943" stroke="#3763BA" stroke-width="3" stroke-miterlimit="10"/>
<path d="M10.4228 57.9142L53.1708 56.585" stroke="#3763BA" stroke-width="3" stroke-miterlimit="10"/>
<path d="M58.307 72.5664H99.2423" stroke="#3763BA" stroke-width="3" stroke-miterlimit="10"/>
<path d="M10.4228 72.5664H53.1708" stroke="#3763BA" stroke-width="3" stroke-miterlimit="10"/>
<path d="M58.307 88.2461L99.2423 89.1222" stroke="#3763BA" stroke-width="3" stroke-miterlimit="10"/>
<path d="M10.4228 87.2168L53.1708 88.1533" stroke="#3763BA" stroke-width="3" stroke-miterlimit="10"/>
<path d="M10.4228 103.019L99.242 107.55" stroke="#3763BA" stroke-width="3" stroke-miterlimit="10"/>
<path d="M11.4499 26.4336V103.622" stroke="#3763BA" stroke-width="3" stroke-miterlimit="10"/>
<path d="M17.7041 26.4336V103.622" stroke="#3763BA" stroke-width="3" stroke-miterlimit="10"/>
<path d="M25.1957 25.498V103.774" stroke="#3763BA" stroke-width="3" stroke-miterlimit="10"/>
<path d="M32.6577 25.1348V104.166" stroke="#3763BA" stroke-width="3" stroke-miterlimit="10"/>
<path d="M40.1498 24.6816V104.528" stroke="#3763BA" stroke-width="3" stroke-miterlimit="10"/>
<path d="M47.6119 24.2295V104.922" stroke="#3763BA" stroke-width="3" stroke-miterlimit="10"/>
<path d="M52.9894 23.6846V105.283" stroke="#3763BA" stroke-width="3" stroke-miterlimit="10"/>
<path d="M58.307 23.6846V105.283" stroke="#3763BA" stroke-width="3" stroke-miterlimit="10"/>
<path d="M62.566 23.1709V105.525" stroke="#3763BA" stroke-width="3" stroke-miterlimit="10"/>
<path d="M70.0581 22.8379V106.068" stroke="#3763BA" stroke-width="3" stroke-miterlimit="10"/>
<path d="M77.5202 22.3867V106.553" stroke="#3763BA" stroke-width="3" stroke-miterlimit="10"/>
<path d="M85.0128 21.873V106.553" stroke="#3763BA" stroke-width="3" stroke-miterlimit="10"/>
<path d="M92.5048 21.873V107.309" stroke="#3763BA" stroke-width="3" stroke-miterlimit="10"/>
<path d="M98.3054 21.1172V107.489" stroke="#3763BA" stroke-width="3" stroke-miterlimit="10"/>
<path d="M0.0604401 23.6861L121.507 15.0156L158.968 23.2631V178.606L121.507 189.059L3.29297 166.159V23.2631" stroke="#3763BA" stroke-width="3" stroke-miterlimit="10"/>
<path d="M6.40457 23.1715L9.51626 10.2715L118.879 0.90625L151.113 9.06311L153.53 21.8724" stroke="#3763BA" stroke-width="3" stroke-miterlimit="10"/>
<path d="M121.507 15.0146L118.879 0.90625" stroke="#3763BA" stroke-width="3" stroke-miterlimit="10"/>
<path d="M140.51 24.2889V106.552L135.314 107.308V23.2617L140.51 24.2889Z" stroke="#3763BA" stroke-width="3" stroke-miterlimit="10"/>
<path d="M143.017 24.7725V106.19L147.7 105.525V25.6788L143.017 24.7725Z" stroke="#3763BA" stroke-width="3" stroke-miterlimit="10"/>
<path d="M153.47 180.115V191.958L150.721 192.562L130.117 186.671" stroke="#3763BA" stroke-width="3" stroke-miterlimit="10"/>
</g>
<defs>
<clipPath id="clip0_88_3118">
<rect width="159.874" height="204.163" fill="white"/>
</clipPath>
</defs>
</svg>
