<svg width="205" height="157" viewBox="0 0 205 157" fill="none" xmlns="http://www.w3.org/2000/svg">
<g clip-path="url(#clip0_88_3049)">
<path d="M18.8618 92.4545C26.5277 92.4545 32.7422 81.1271 32.7422 67.154C32.7422 53.1809 26.5277 41.8535 18.8618 41.8535C11.1959 41.8535 4.98145 53.1809 4.98145 67.154C4.98145 81.1271 11.1959 92.4545 18.8618 92.4545Z" stroke="#3763BA" stroke-width="3" stroke-miterlimit="10"/>
<path d="M70.5257 1.76059L92.4852 0.910156C100.139 0.910156 106.366 8.38186 106.366 17.6152C106.366 26.8485 100.17 34.3202 92.4852 34.3202L76.5699 34.8062" stroke="#3763BA" stroke-width="3" stroke-miterlimit="10"/>
<path d="M70.5257 1.76074C62.8718 1.76074 56.6454 9.23244 56.6454 18.4658C56.6454 24.4796 59.2878 29.7341 63.2362 32.6802" stroke="#3763BA" stroke-width="3" stroke-miterlimit="10"/>
<path d="M142.995 31.9828C148.564 31.9828 153.079 26.5434 153.079 19.8337C153.079 13.1239 148.564 7.68457 142.995 7.68457C137.426 7.68457 132.911 13.1239 132.911 19.8337C132.911 26.5434 137.426 31.9828 142.995 31.9828Z" stroke="#3763BA" stroke-width="3" stroke-miterlimit="10"/>
<path d="M169.693 5.07129C175.251 5.07129 179.777 10.508 179.777 17.2204C179.777 23.9328 175.251 29.3695 169.693 29.3695" stroke="#3763BA" stroke-width="3" stroke-miterlimit="10"/>
<path d="M70.5257 1.76074C78.3315 1.76074 84.6794 9.44505 84.6794 18.8606C84.6794 25.7249 81.3992 32.1031 76.5699 34.8063" stroke="#3763BA" stroke-width="3" stroke-miterlimit="10"/>
<path d="M18.8617 41.8535H27.8217C35.2023 41.8535 41.1857 52.7573 41.1857 66.2125C41.1857 79.6676 34.1392 90.9055 28.4595 91.27L18.5276 92.4242" stroke="#3763BA" stroke-width="3" stroke-miterlimit="10"/>
<path d="M17.0999 151.468C26.0407 151.468 33.2886 138.251 33.2886 121.946C33.2886 105.641 26.0407 92.4238 17.0999 92.4238C8.15918 92.4238 0.911255 105.641 0.911255 121.946C0.911255 138.251 8.15918 151.468 17.0999 151.468Z" stroke="#3763BA" stroke-width="3" stroke-miterlimit="10"/>
<path d="M31.8612 89.9033C39.181 92.728 44.9822 104.573 44.9822 118.757C44.9822 129.57 41.7931 139.016 37.0549 144.149" stroke="#3763BA" stroke-width="3" stroke-miterlimit="10"/>
<path d="M48.3233 138.59L190.225 98.8932C190.225 98.8932 195.176 98.1947 197.332 92.1201" stroke="#3763BA" stroke-width="3" stroke-miterlimit="10"/>
<path d="M18.4062 151.469L33.5622 147.247L33.6533 147.217C34.686 146.579 36.1743 145.152 37.0855 144.18" stroke="#3763BA" stroke-width="3" stroke-miterlimit="10"/>
<path d="M11.1472 88.1416V94.4895" stroke="#3763BA" stroke-width="3" stroke-miterlimit="10"/>
<path d="M32.742 89.2051L45.7415 90.5719V155.752" stroke="#3763BA" stroke-width="3" stroke-miterlimit="10"/>
<path d="M33.5923 88.3838L48.232 89.9024V90.358V154.505L45.7414 155.568L29.978 148.218" stroke="#3763BA" stroke-width="3" stroke-miterlimit="10"/>
<path d="M45.7416 90.5715L48.2321 89.9033" stroke="#3763BA" stroke-width="3" stroke-miterlimit="10"/>
<path d="M97.2235 118.757V36.9632L197.362 31.4961V92.1201L97.2235 118.757ZM97.2235 118.757L81.5511 115.416V36.9936L97.2235 36.9632" stroke="#3763BA" stroke-width="3" stroke-miterlimit="10"/>
<path d="M44.9823 89.5693V44.1316L31.3753 42.7041" stroke="#3763BA" stroke-width="3" stroke-miterlimit="10"/>
<path d="M48.2323 91.8168L58.7716 89.9033" stroke="#3763BA" stroke-width="3" stroke-miterlimit="10"/>
<path d="M44.9822 84.9527L58.7714 82.4014" stroke="#3763BA" stroke-width="3" stroke-miterlimit="10"/>
<path d="M51.816 43.9798L58.7713 42.7041" stroke="#3763BA" stroke-width="3" stroke-miterlimit="10"/>
<path d="M78.6048 38.36V93.1221C65.4534 96.6453 58.7714 93.1221 58.7714 93.1221V38.36C58.7714 38.36 61.1101 31.4654 67.4884 31.4654V27.4258H69.9182V31.4654C76.2661 31.4957 78.6048 38.36 78.6048 38.36Z" stroke="#3763BA" stroke-width="3" stroke-miterlimit="10"/>
<path d="M188.159 31.9817C188.159 31.9817 190.103 26.6361 194.933 26.6361V23.8418H196.755V26.6361C201.584 26.6361 203.316 31.3742 203.316 31.3742" stroke="#3763BA" stroke-width="3" stroke-miterlimit="10"/>
<path d="M203.316 31.4053V69.1283C203.316 69.1283 200.855 70.0394 197.363 69.7965" stroke="#3763BA" stroke-width="3" stroke-miterlimit="10"/>
<path d="M66.0001 94.6715V102.325C66.0001 102.325 67.0632 103.571 68.8855 103.571C70.7079 103.571 71.5583 102.113 71.5583 102.113V94.4893" stroke="#3763BA" stroke-width="3" stroke-miterlimit="10"/>
<path d="M47.8676 59.7734L48.3232 74.5042L53.4866 110.131L81.551 104.816" stroke="#3763BA" stroke-width="3" stroke-miterlimit="10"/>
<path d="M49.6899 59.7734L50.0848 72.2566L55.2482 107.854L81.551 102.872" stroke="#3763BA" stroke-width="3" stroke-miterlimit="10"/>
<path d="M117.573 119.243L140.049 124.467L142.995 123.556V112.136" stroke="#3763BA" stroke-width="3" stroke-miterlimit="10"/>
<path d="M139.988 124.466V113.016" stroke="#3763BA" stroke-width="3" stroke-miterlimit="10"/>
<path d="M179.868 101.809L201.797 105.636L203.315 104.816V69.1279" stroke="#3763BA" stroke-width="3" stroke-miterlimit="10"/>
<path d="M201.706 105.515V69.5537" stroke="#3763BA" stroke-width="3" stroke-miterlimit="10"/>
<path d="M45.8936 58.1332L47.8678 59.7733H49.6902L51.8163 57.4346V40.3955L45.3469 40.7296L45.8936 58.1332Z" stroke="#3763BA" stroke-width="3" stroke-miterlimit="10"/>
<path d="M142.995 7.68335L169.693 5.07129" stroke="#3763BA" stroke-width="3" stroke-miterlimit="10"/>
<path d="M142.995 31.9821L169.693 29.4004" stroke="#3763BA" stroke-width="3" stroke-miterlimit="10"/>
<path d="M105.88 13.3633C105.88 13.3633 122.858 17.3725 132.911 35.0191" stroke="#3763BA" stroke-width="3" stroke-miterlimit="10"/>
<path d="M106.092 20.8955C106.092 20.8955 117.118 24.4795 121.916 35.5959" stroke="#3763BA" stroke-width="3" stroke-miterlimit="10"/>
<path d="M81.5511 36.9933L183.907 31.4958L188.463 31.2832" stroke="#3763BA" stroke-width="3" stroke-miterlimit="10"/>
<path d="M179.443 20.41H185.73L189.162 13.8799L201.007 14.7911L202.131 29.4004" stroke="#3763BA" stroke-width="3" stroke-miterlimit="10"/>
<path d="M178.714 22.7176H186.823L190.772 16.4912L199.185 17.2202L199.853 27.4254" stroke="#3763BA" stroke-width="3" stroke-miterlimit="10"/>
<path d="M106 43.4951V110.222L188.427 89.8113V38L106 43.4951Z" fill="#E54D24"/>
</g>
<defs>
<clipPath id="clip0_88_3049">
<rect width="204.227" height="156.541" fill="white"/>
</clipPath>
</defs>
</svg>
