<svg width="221" height="165" viewBox="0 0 221 165" fill="none" xmlns="http://www.w3.org/2000/svg">
<g clip-path="url(#clip0_88_3154)">
<path d="M118 143.661V21L206.85 48.52V124.004L118 143.661Z" fill="#E54D24"/>
<path d="M91.9719 163.243L3.04242 151.417V145.833L0.940735 145.676V13.4896L91.9719 0.973633L219.39 40.592V127.608L91.9719 163.243ZM91.9719 163.243V0.973633" stroke="#3763BA" stroke-width="3" stroke-miterlimit="10"/>
<path d="M96.9284 6.27441V154.553L211.956 125.474V42.1285L96.9284 6.27441Z" stroke="#3763BA" stroke-width="3" stroke-miterlimit="10"/>
<path d="M3.04285 145.833L91.9723 157.596" stroke="#3763BA" stroke-width="3" stroke-miterlimit="10"/>
<path d="M0.940735 76.3525L91.9719 74.5645" stroke="#3763BA" stroke-width="3" stroke-miterlimit="10"/>
<path d="M0.940735 84.5712L91.9719 82.7832" stroke="#3763BA" stroke-width="3" stroke-miterlimit="10"/>
<path d="M0.940735 17.7239L91.9719 6.27441" stroke="#3763BA" stroke-width="3" stroke-miterlimit="10"/>
<path d="M45.6721 12.0156V75.4426" stroke="#3763BA" stroke-width="3" stroke-miterlimit="10"/>
<path d="M49.1542 12.0156V75.4426" stroke="#3763BA" stroke-width="3" stroke-miterlimit="10"/>
<path d="M91.9719 15.9053L13.5822 23.967V35.291L91.9719 27.2293" stroke="#3763BA" stroke-width="3" stroke-miterlimit="10"/>
<path d="M13.5822 29.6125L91.9719 21.5508" stroke="#3763BA" stroke-width="3" stroke-miterlimit="10"/>
<path d="M91.9719 34.5068L13.5822 41.1883V52.5123L91.9719 48.6854" stroke="#3763BA" stroke-width="3" stroke-miterlimit="10"/>
<path d="M13.5822 46.5517L91.9719 41.9092" stroke="#3763BA" stroke-width="3" stroke-miterlimit="10"/>
<path d="M91.9719 53.7031L13.5822 56.9654V68.2894L91.9719 66.4073" stroke="#3763BA" stroke-width="3" stroke-miterlimit="10"/>
<path d="M13.5822 62.6116L91.9719 60.7295" stroke="#3763BA" stroke-width="3" stroke-miterlimit="10"/>
<path d="M30.8663 119.107C33.3956 119.107 35.4461 116.494 35.4461 113.272C35.4461 110.05 33.3956 107.438 30.8663 107.438C28.3369 107.438 26.2865 110.05 26.2865 113.272C26.2865 116.494 28.3369 119.107 30.8663 119.107Z" stroke="#3763BA" stroke-width="3" stroke-miterlimit="10"/>
<path d="M27.0709 109.854C28.0747 105.149 31.4311 101.698 35.4463 101.698C40.2457 101.698 44.104 106.654 44.104 112.74C44.104 118.825 40.2143 123.782 35.4463 123.782C31.9958 123.782 29.0158 121.209 27.6042 117.477" stroke="#3763BA" stroke-width="3" stroke-miterlimit="10"/>
<path d="M35.4462 101.697L43.5079 100.693C48.3072 100.693 52.1655 105.65 52.1655 111.735C52.1655 116.472 49.8129 120.518 46.5192 122.087C45.5782 122.526 35.9794 123.749 35.9794 123.749" stroke="#3763BA" stroke-width="3" stroke-miterlimit="10"/>
<path d="M30.8665 107.438L32.9368 106.968C35.4776 106.968 37.5166 109.571 37.5166 112.802C37.5166 114.747 36.7637 116.472 35.6345 117.508C35.4462 117.696 31.2429 119.076 31.2429 119.076" stroke="#3763BA" stroke-width="3" stroke-miterlimit="10"/>
<path d="M70.6727 119.107C73.2021 119.107 75.2525 116.494 75.2525 113.272C75.2525 110.05 73.2021 107.438 70.6727 107.438C68.1434 107.438 66.093 110.05 66.093 113.272C66.093 116.494 68.1434 119.107 70.6727 119.107Z" stroke="#3763BA" stroke-width="3" stroke-miterlimit="10"/>
<path d="M66.8771 109.854C67.8809 105.149 71.2373 101.698 75.2525 101.698C80.0519 101.698 83.9102 106.654 83.9102 112.74C83.9102 118.825 80.0205 123.782 75.2525 123.782C71.802 123.782 68.822 121.209 67.4104 117.477" stroke="#3763BA" stroke-width="3" stroke-miterlimit="10"/>
<path d="M75.2529 101.697L83.3146 100.693C88.1139 100.693 91.9722 105.65 91.9722 111.735C91.9722 116.472 89.6196 120.518 86.3259 122.087C85.3849 122.526 75.7861 123.749 75.7861 123.749" stroke="#3763BA" stroke-width="3" stroke-miterlimit="10"/>
<path d="M70.6729 107.438L72.7432 106.968C75.2841 106.968 77.323 109.571 77.323 112.802C77.323 114.747 76.5702 116.472 75.4409 117.508C75.2527 117.696 71.0493 119.076 71.0493 119.076" stroke="#3763BA" stroke-width="3" stroke-miterlimit="10"/>
<path d="M96.9284 74.5645L219.391 79.2697" stroke="#3763BA" stroke-width="3" stroke-miterlimit="10"/>
<path d="M96.9284 82.0928L219.391 85.7629" stroke="#3763BA" stroke-width="3" stroke-miterlimit="10"/>
<path d="M110.166 10.416V75.0664" stroke="#3763BA" stroke-width="3" stroke-miterlimit="10"/>
<path d="M113.24 11.3574V75.0667" stroke="#3763BA" stroke-width="3" stroke-miterlimit="10"/>
<path d="M127.67 83.002V146.774" stroke="#3763BA" stroke-width="3" stroke-miterlimit="10"/>
<path d="M130.744 83.0654V145.959" stroke="#3763BA" stroke-width="3" stroke-miterlimit="10"/>
<path d="M148.216 22.3984V76.5404" stroke="#3763BA" stroke-width="3" stroke-miterlimit="10"/>
<path d="M151.29 23.2764V76.54" stroke="#3763BA" stroke-width="3" stroke-miterlimit="10"/>
<path d="M180.212 77.8887V133.505" stroke="#3763BA" stroke-width="3" stroke-miterlimit="10"/>
<path d="M183.286 77.8887V132.878" stroke="#3763BA" stroke-width="3" stroke-miterlimit="10"/>
</g>
<defs>
<clipPath id="clip0_88_3154">
<rect width="220.332" height="164.496" fill="white"/>
</clipPath>
</defs>
</svg>
