<svg width="79" height="69" viewBox="0 0 79 69" fill="none" xmlns="http://www.w3.org/2000/svg">
<g clip-path="url(#clip0_88_3221)">
<path d="M73.4236 33.9223C73.4236 50.791 61.1298 64.7944 44.9999 67.4287C43.1974 67.706 41.3949 67.8908 39.5 67.8908C37.0042 67.8908 34.6009 67.6135 32.2438 67.1052C27.1599 65.996 22.4919 63.7314 18.5172 60.635C15.282 58.0931 12.509 54.9967 10.383 51.438C7.33261 46.3543 5.53013 40.3463 5.53013 33.9685C5.53013 15.9906 19.534 1.29404 37.1891 0.0924314C37.9748 0.0462157 38.7143 0 39.5 0C42.9663 0 46.294 0.508372 49.4367 1.4789C54.382 3.00402 58.8651 5.63831 62.6087 9.05827C65.7515 11.9699 68.2935 15.436 70.1884 19.3182C72.222 23.7549 73.4236 28.6999 73.4236 33.9223Z" fill="#FF8164"/>
<path d="M73.4236 35.0779C73.4236 51.9466 61.1298 65.95 44.9998 68.5843C43.1974 68.8615 41.3949 69.0464 39.5 69.0464C37.0042 69.0464 34.6009 68.7691 32.2438 68.2607C27.1599 67.1516 22.4919 64.887 18.5172 61.7906C15.282 59.2487 12.509 56.1522 10.3829 52.5936C7.33259 47.5099 5.53011 41.5019 5.53011 35.1241C5.57633 17.1 19.534 2.40341 37.2353 1.20181C37.9748 1.15559 38.7605 1.10938 39.5 1.10938C42.9663 1.10938 46.2939 1.61775 49.4367 2.58828C54.382 4.11339 58.8651 6.74769 62.6087 10.1676C65.7515 13.0792 68.2935 16.5454 70.1884 20.4275C72.222 24.9104 73.4236 29.8555 73.4236 35.0779Z" fill="#F46C4D"/>
<path d="M49.4367 2.63449L18.5172 61.7443C15.282 59.2025 12.509 56.106 10.383 52.5474L37.2353 1.20181C37.9748 1.15559 38.7605 1.10938 39.5 1.10938C42.9663 1.15559 46.294 1.66396 49.4367 2.63449Z" fill="#E54D24"/>
<path d="M70.1421 20.4737L44.9998 68.5843C43.1973 68.8616 41.3949 69.0464 39.4999 69.0464C37.0042 69.0464 34.6009 68.7691 32.2438 68.2607L62.5625 10.2139C65.7053 13.1255 68.2934 16.5916 70.1421 20.4737Z" fill="#E54D24"/>
<path d="M64.5499 35.0775C64.5499 37.7118 64.1339 40.2999 63.3482 42.7031C60.7138 51.0219 53.8274 57.4459 45.2309 59.4794C44.6763 59.6181 44.1217 59.7105 43.5209 59.8029H43.4747C42.7814 59.8953 42.0881 59.9878 41.3487 60.034C40.7016 60.0802 40.1008 60.1264 39.4537 60.1264C38.7143 60.1264 37.9748 60.0802 37.2353 60.034C36.542 59.9878 35.8488 59.8954 35.1555 59.7567C35.0631 59.7567 34.9707 59.7105 34.8782 59.7105C34.6009 59.6643 34.3236 59.6181 34.0463 59.5256C30.3027 58.6937 26.8364 57.03 23.9247 54.7192C21.5214 52.8244 19.4878 50.5598 17.9164 47.9255C16.7147 45.9382 15.7904 43.7661 15.1896 41.4553C14.635 39.4218 14.3577 37.2497 14.3577 35.0313C14.3577 31.4265 15.1433 27.9603 16.4837 24.8639C19.2567 18.6248 24.5255 13.6797 31.0422 11.4151C33.1682 10.6757 35.3866 10.2135 37.7437 10.0286C38.2983 9.98242 38.8529 9.98242 39.4075 9.98242C41.9495 9.98242 44.399 10.3521 46.7561 11.0916C47.0334 11.184 47.2645 11.2765 47.5418 11.3227C50.9157 12.4781 53.9198 14.3267 56.4618 16.6837C58.7727 18.8096 60.6676 21.3977 62.0541 24.2631C62.1003 24.3555 62.1465 24.4941 62.1928 24.6328C63.7179 27.8217 64.5499 31.3341 64.5499 35.0775Z" fill="#EF775B"/>
<path d="M43.4747 59.8025C42.7814 59.895 42.0881 59.9874 41.3487 60.0336C40.7016 60.0798 40.1008 60.126 39.4537 60.126C38.7143 60.126 37.9748 60.0798 37.2353 60.0336C36.8656 59.3866 36.3572 58.5085 35.7563 57.4917C31.643 50.5594 23.139 36.1863 16.5299 24.9097C19.3029 18.6706 24.5717 13.7255 31.0884 11.4609L39.3151 43.627L42.8738 57.538L43.4747 59.8025Z" fill="#F28564"/>
<path d="M62.2852 24.6334C55.6299 35.9562 47.0334 50.5141 42.9201 57.4927C42.3192 58.5094 41.8108 59.3875 41.3949 60.0346C40.7478 60.0808 40.147 60.127 39.5 60.127C38.7605 60.127 38.021 60.0808 37.2815 60.0346C36.5883 59.9883 35.895 59.8959 35.2017 59.7573L35.8026 57.4927L39.3613 43.5818L47.588 11.3232C50.9619 12.4786 53.9661 14.3273 56.508 16.6843C58.8189 18.8102 60.7138 21.3983 62.1003 24.2636C62.1465 24.4023 62.239 24.5409 62.2852 24.6334Z" fill="#F28564"/>
<path d="M63.3482 42.7041C60.7138 51.0229 53.8274 57.4469 45.2309 59.4804L63.3482 42.7041Z" fill="url(#paint0_linear_88_3221)"/>
<path d="M15.282 41.502L34.9706 59.7109C34.6933 59.6647 34.416 59.6185 34.1387 59.5261C30.3951 58.6942 26.9288 57.0304 24.0171 54.7196C21.6138 52.8248 19.5802 50.5602 18.0088 47.9259C16.8072 45.9849 15.8828 43.8127 15.282 41.502Z" fill="url(#paint1_linear_88_3221)"/>
<path d="M71.7598 66.6895C50.4536 61.9755 28.5927 61.9755 7.24021 66.6895C5.16042 67.1517 3.12685 65.5804 2.7109 63.1309C1.97142 58.8329 1.23194 54.4886 0.492456 50.1905C0.076499 47.7411 1.60168 45.2455 3.86633 44.7371C27.4373 39.5147 51.5628 39.5147 75.1337 44.7371C77.4446 45.2455 78.9698 47.7411 78.5076 50.1905C77.7681 54.4886 77.0286 58.8329 76.2891 63.1309C75.827 65.5804 73.7934 67.1517 71.7598 66.6895Z" fill="#C64122"/>
<path d="M71.7598 64.4249C50.4535 59.7109 28.5927 59.7109 7.24019 64.4249C5.1604 64.887 3.12683 63.3157 2.71087 60.8663C1.97139 56.5682 1.23191 52.2239 0.492434 47.9259C0.0764762 45.4765 1.60165 42.9808 3.86631 42.4724C27.4372 37.2501 51.5628 37.2501 75.1337 42.4724C77.4446 42.9808 78.9697 45.4765 78.5076 47.9259C77.7681 52.2239 77.0286 56.5682 76.2891 60.8663C75.8269 63.2695 73.7934 64.8408 71.7598 64.4249Z" fill="#F46C4D"/>
<path d="M71.7598 65.5343C50.4536 60.8203 28.5927 60.8203 7.24021 65.5343C5.16042 65.9964 3.12685 64.4251 2.7109 61.9757C1.97142 57.6776 1.23194 53.3333 0.492456 49.0353C0.076499 46.5858 1.60168 44.0902 3.86633 43.5818C27.4373 38.3594 51.5628 38.3594 75.1337 43.5818C77.4446 44.0902 78.9698 46.5858 78.5076 49.0353C77.7681 53.3333 77.0286 57.6776 76.2891 61.9757C75.827 64.4251 73.7934 65.9964 71.7598 65.5343Z" fill="#E54D24"/>
<path d="M34.3236 18.5328H37.7899V33.6454H34.9244L27.3448 24.4947V33.6916H23.8785V18.5328H26.7902L34.3236 27.7298V18.5328ZM41.3487 25.0492C40.7478 24.7257 40.2394 24.3098 39.8697 23.7552C39.5 23.2006 39.3613 22.5998 39.3613 21.9066C39.3613 21.2133 39.5462 20.6125 39.8697 20.058C40.2394 19.5034 40.7016 19.0874 41.3487 18.7639C41.9495 18.4404 42.689 18.3018 43.4285 18.3018C44.2142 18.3018 44.9074 18.4404 45.5082 18.7639C46.1091 19.0874 46.6175 19.5034 46.9872 20.058C47.3569 20.6125 47.4956 21.2133 47.4956 21.9066C47.4956 22.5998 47.3107 23.2006 46.9872 23.7552C46.6175 24.3098 46.1553 24.7257 45.5082 25.0492C44.9074 25.3728 44.1679 25.5114 43.4285 25.5114C42.6428 25.5114 41.9495 25.3265 41.3487 25.0492ZM39.7773 26.9441H47.0796V28.9776H39.7773V26.9441ZM42.1344 20.6125C41.8108 20.9361 41.626 21.352 41.626 21.9066C41.626 22.4612 41.8108 22.8771 42.1344 23.2006C42.4579 23.5241 42.9201 23.709 43.4285 23.709C43.9831 23.709 44.399 23.5241 44.7225 23.2006C45.0461 22.8771 45.2309 22.4612 45.2309 21.9066C45.2309 21.352 45.0461 20.9361 44.7225 20.6125C44.399 20.289 43.9368 20.1504 43.4285 20.1504C42.9201 20.1504 42.4579 20.3352 42.1344 20.6125Z" fill="#E54D24"/>
<path d="M55.5837 18.5322V33.6448H52.0711V21.3514H49.067V18.5322H55.5837Z" fill="#E54D24"/>
<path d="M34.3236 17.4694H37.7899V32.5819H34.9245L27.3448 23.4312V32.6281H23.8785V17.4694H26.7902L34.3236 26.6663V17.4694ZM41.3487 23.9858C40.7479 23.6623 40.2395 23.2463 39.8697 22.6917C39.5 22.1371 39.3613 21.5363 39.3613 20.8431C39.3613 20.1499 39.5462 19.5491 39.8697 18.9945C40.2395 18.4399 40.7016 18.0239 41.3487 17.7004C41.9495 17.3769 42.689 17.2383 43.4285 17.2383C44.2142 17.2383 44.9074 17.3769 45.5083 17.7004C46.1091 18.0239 46.6175 18.4399 46.9872 18.9945C47.357 19.5491 47.4956 20.1499 47.4956 20.8431C47.4956 21.5363 47.3108 22.1371 46.9872 22.6917C46.6175 23.2463 46.1553 23.6623 45.5083 23.9858C44.9074 24.3093 44.168 24.4479 43.4285 24.4479C42.6428 24.4479 41.9495 24.3093 41.3487 23.9858ZM39.7773 25.8806H47.0797V27.9141H39.7773V25.8806ZM42.1344 19.5953C41.8109 19.9188 41.626 20.3347 41.626 20.8893C41.626 21.4439 41.8109 21.8598 42.1344 22.1834C42.4579 22.5069 42.9201 22.6455 43.4285 22.6455C43.9831 22.6455 44.399 22.4607 44.7226 22.1371C45.0461 21.8136 45.231 21.3977 45.231 20.8431C45.231 20.2885 45.0461 19.8726 44.7226 19.5491C44.399 19.2256 43.9369 19.0869 43.4285 19.0869C42.9201 19.0869 42.4579 19.2718 42.1344 19.5953Z" fill="white"/>
<path d="M55.5837 17.4688V32.5813H52.0712V20.2879H49.067V17.4688H55.5837Z" fill="white"/>
<path d="M10.614 45.3369C11.03 48.0636 11.2611 49.4501 11.6771 52.1768C11.03 52.2693 10.7065 52.3155 10.1057 52.4079C9.73592 50.1896 9.55105 49.0804 9.18131 46.862C7.88722 47.0931 7.24017 47.1855 5.9923 47.4166C6.40826 49.635 6.59313 50.7441 7.00908 52.9625C6.36204 53.0549 6.03852 53.1474 5.43769 53.2398C4.9293 50.5131 4.65199 49.1728 4.1436 46.4461C6.73178 45.9377 8.02587 45.7066 10.614 45.3369Z" fill="white"/>
<path d="M14.7274 51.3916C14.1266 51.1605 13.572 50.7908 13.2022 50.3286C12.7863 49.8203 12.5552 49.2657 12.4628 48.5724C12.3703 47.8792 12.4165 47.2784 12.6939 46.6776C12.9712 46.0768 13.3409 45.6146 13.8955 45.1987C14.4501 44.829 15.0972 44.5517 15.8366 44.4592C16.5761 44.3668 17.2694 44.4592 17.9164 44.6903C18.5635 44.9214 19.0719 45.2911 19.4416 45.7995C19.8576 46.3079 20.0887 46.9087 20.1349 47.5557C20.2273 48.2489 20.0887 48.8497 19.8113 49.4505C19.534 50.0513 19.1181 50.5135 18.6097 50.8832C18.0551 51.253 17.4543 51.484 16.7148 51.5765C16.0215 51.6689 15.3283 51.5765 14.7274 51.3916ZM17.6391 49.8203C17.9626 49.5892 18.1937 49.3119 18.3324 48.9422C18.471 48.5724 18.5173 48.2027 18.471 47.7868C18.4248 47.3708 18.2862 47.0011 18.0551 46.6776C17.824 46.3541 17.5467 46.123 17.1769 45.9844C16.8072 45.8457 16.4375 45.7995 16.0215 45.8457C15.6056 45.8919 15.2358 46.0306 14.9123 46.2617C14.5888 46.4927 14.3577 46.77 14.219 47.1398C14.0804 47.5095 14.0342 47.8792 14.0804 48.2952C14.1266 48.7111 14.2652 49.0808 14.5426 49.4043C14.7736 49.7278 15.0972 49.9589 15.4207 50.0976C15.7904 50.2362 16.1602 50.2824 16.5761 50.2362C16.9459 50.1438 17.3156 50.0051 17.6391 49.8203Z" fill="white"/>
<path d="M25.912 50.1896C25.3112 49.9123 24.849 49.5426 24.4331 49.0342C24.0633 48.5258 23.8322 47.925 23.786 47.2318C23.7398 46.5385 23.8322 45.9377 24.1096 45.3369C24.3869 44.7824 24.849 44.3202 25.4036 43.9505C25.9583 43.5807 26.6515 43.3959 27.391 43.3497C28.038 43.3035 28.5927 43.3959 29.101 43.5807C29.6094 43.7656 30.0716 44.0429 30.4414 44.4126C30.0254 44.8286 29.8405 45.0134 29.4246 45.4294C28.9162 44.921 28.3153 44.6899 27.5759 44.7361C27.1137 44.7824 26.744 44.8748 26.4204 45.1059C26.0969 45.3369 25.8196 45.6142 25.681 45.9377C25.4961 46.3075 25.4499 46.6772 25.4961 47.0931C25.5423 47.5091 25.6347 47.8788 25.8658 48.2023C26.0969 48.5258 26.3742 48.7569 26.744 48.9418C27.1137 49.1266 27.4834 49.1728 27.9456 49.1266C28.6389 49.0804 29.1935 48.7569 29.6557 48.2023C30.1178 48.572 30.3027 48.7569 30.7649 49.0804C30.4414 49.4963 30.0716 49.8199 29.5632 50.0509C29.101 50.282 28.5464 50.4207 27.9456 50.4669C27.1599 50.5593 26.4666 50.4207 25.912 50.1896Z" fill="white"/>
<path d="M37.1429 48.7109C37.1429 49.2193 37.1429 49.4966 37.1429 50.0049C34.9707 50.0511 33.9077 50.0511 31.7354 50.1436C31.5968 47.3706 31.5506 45.9842 31.4119 43.2112C33.5841 43.1188 34.6934 43.0726 36.8656 43.0264C36.8656 43.5347 36.8656 43.812 36.8656 44.3204C35.3404 44.3666 34.6009 44.3666 33.0757 44.4128C33.0757 45.0136 33.122 45.3372 33.122 45.938C34.4623 45.8917 35.1093 45.8917 36.4496 45.8455C36.4496 46.3539 36.4496 46.585 36.4496 47.0933C35.1555 47.1396 34.4623 47.1396 33.1682 47.1858C33.1682 47.8328 33.2144 48.1563 33.2144 48.8033C34.832 48.7571 35.6177 48.7571 37.1429 48.7109Z" fill="white"/>
<path d="M43.1974 43.3961C43.6595 43.6272 44.0293 43.9045 44.2604 44.2742C44.4915 44.6439 44.6301 45.1061 44.5839 45.6144C44.5839 46.1228 44.4452 46.585 44.1679 46.9547C43.8906 47.3244 43.5671 47.6017 43.1049 47.7866C42.6428 47.9714 42.0881 48.0639 41.4873 48.0639C40.9327 48.0639 40.6554 48.0639 40.0546 48.0639C40.0546 48.8495 40.0546 49.2193 40.0546 49.9587C39.4075 49.9587 39.084 49.9587 38.437 49.9587C38.437 47.1858 38.3907 45.7993 38.3907 43.0264C39.6386 43.0264 40.2857 43.0264 41.5335 43.0264C42.1806 43.0726 42.7352 43.165 43.1974 43.3961ZM42.5503 46.4925C42.8276 46.3077 42.9663 45.9842 42.9663 45.6144C42.9663 45.2447 42.8276 44.9212 42.5965 44.6901C42.3192 44.4591 41.9495 44.3666 41.4411 44.3666C40.8865 44.3666 40.6092 44.3666 40.1008 44.3666C40.1008 45.3372 40.1008 45.7993 40.1008 46.7698C40.6554 46.7698 40.8865 46.7698 41.4411 46.7698C41.9033 46.7698 42.273 46.6774 42.5503 46.4925Z" fill="white"/>
<path d="M51.5628 47.3707C51.7938 47.648 51.8863 48.0177 51.8401 48.4336C51.7939 49.0344 51.5165 49.4966 51.0544 49.8201C50.546 50.1436 49.8989 50.2823 49.0208 50.236C47.6343 50.1898 46.941 50.1436 45.6007 50.0974C45.6931 47.3244 45.7394 45.938 45.8318 43.165C47.1721 43.2113 47.8654 43.2113 49.2057 43.3037C50.0376 43.3499 50.6846 43.5348 51.1468 43.8583C51.609 44.1818 51.7939 44.6439 51.7476 45.2447C51.7476 45.5683 51.609 45.8918 51.4241 46.1228C51.2392 46.3539 50.9619 46.585 50.6384 46.6774C51.0082 46.8161 51.3317 47.0472 51.5628 47.3707ZM47.3108 46.0766C47.9116 46.1228 48.2351 46.1228 48.8359 46.1228C49.2057 46.1228 49.483 46.0766 49.6678 45.938C49.8527 45.7993 49.9452 45.6145 49.9914 45.3372C49.9914 45.0599 49.9452 44.875 49.7603 44.6902C49.5754 44.5515 49.2981 44.4591 48.9746 44.4129C48.3738 44.3666 48.0502 44.3666 47.4032 44.3666C47.357 45.0599 47.357 45.3834 47.3108 46.0766ZM50.1762 48.2025C50.2225 47.648 49.8527 47.3245 49.067 47.2782C48.3275 47.232 48.004 47.232 47.2645 47.1858C47.2183 47.879 47.2183 48.2488 47.2183 48.942C47.9116 48.9882 48.2813 48.9882 49.0208 49.0344C49.7603 49.0806 50.1762 48.8034 50.1762 48.2025Z" fill="white"/>
<path d="M53.4576 43.5352C54.1047 43.5814 54.4744 43.6276 55.1215 43.6738C54.9828 45.4762 54.8904 46.3543 54.7517 48.1567C56.2307 46.4467 57.0164 45.6149 58.5416 43.9511C59.1886 43.9973 59.4659 44.0435 60.113 44.0897C59.8357 46.8627 59.6508 48.2029 59.3735 50.9759C58.7264 50.9297 58.4029 50.8835 57.8021 50.791C57.987 48.9886 58.0794 48.1105 58.218 46.3081C56.6929 47.9719 55.9534 48.8037 54.4744 50.5137C53.8736 50.4675 53.5501 50.4213 52.9493 50.4213C53.1803 47.6946 53.2728 46.3081 53.4576 43.5352Z" fill="white"/>
<path d="M62.5163 51.022C61.9617 50.6523 61.592 50.1901 61.3146 49.5893C61.0373 48.9885 60.9449 48.3877 61.0373 47.6945C61.1298 47.0012 61.3609 46.4004 61.7306 45.9383C62.1466 45.4299 62.655 45.0602 63.2558 44.8291C63.9028 44.598 64.5499 44.5518 65.2893 44.6442C65.8902 44.7367 66.4448 44.9215 66.9532 45.1988C67.4154 45.4761 67.7851 45.8458 68.0624 46.308C67.6002 46.6315 67.3229 46.7702 66.8607 47.0937C66.4448 46.4929 65.8902 46.1231 65.1969 46.0307C64.7347 45.9845 64.365 46.0307 63.9953 46.1694C63.6255 46.308 63.302 46.5391 63.0709 46.8626C62.8398 47.1861 62.7012 47.5558 62.655 47.9718C62.6087 48.3877 62.655 48.8037 62.7936 49.1272C62.9323 49.4969 63.1633 49.7742 63.4869 50.0053C63.8104 50.2363 64.1801 50.375 64.5961 50.4212C65.2893 50.5136 65.8902 50.3288 66.4448 49.8666C66.8145 50.2826 66.9994 50.5136 67.3229 50.9758C66.9532 51.3455 66.491 51.5766 65.9826 51.7152C65.4742 51.8539 64.9196 51.9001 64.3188 51.8077C63.6717 51.669 63.0709 51.4379 62.5163 51.022Z" fill="white"/>
<path d="M75.6883 46.4457C74.0707 48.3868 73.285 49.3573 71.7136 51.2984C71.3438 51.7605 70.9279 52.0841 70.4657 52.3151C70.0035 52.5 69.5876 52.5924 69.1254 52.5C68.7556 52.4538 68.3859 52.3151 68.0162 52.0841C68.2473 51.6219 68.3397 51.3908 68.5708 50.9287C68.8481 51.0673 69.0792 51.1135 69.264 51.1597C69.4489 51.206 69.6338 51.1597 69.8186 51.1135C70.0035 51.0673 70.1422 50.9287 70.327 50.7438C70.3733 50.6976 70.3733 50.6976 70.4195 50.6976C69.6338 48.5255 69.264 47.4163 68.4321 45.2441C69.1254 45.3366 69.4951 45.429 70.1884 45.5214C70.6968 47.0928 70.9741 47.9246 71.4825 49.496C72.4993 48.1557 73.0076 47.5087 74.0707 46.1685C74.7177 46.2609 75.0412 46.3071 75.6883 46.4457Z" fill="white"/>
<path d="M29.748 56.9383C29.8405 57.0307 29.9329 57.2156 29.9329 57.3542C29.9329 57.6315 29.8867 57.8164 29.7018 58.0012C29.5169 58.1861 29.2396 58.2785 28.8699 58.2785C28.3153 58.3247 27.9918 58.371 27.4371 58.4172C27.2985 57.2618 27.2523 56.661 27.1136 55.5056C27.6682 55.4594 27.9455 55.4132 28.5002 55.3669C28.8699 55.3207 29.1472 55.3669 29.3321 55.5056C29.5169 55.598 29.6556 55.7829 29.6556 56.0602C29.6556 56.1988 29.6556 56.3375 29.5632 56.4299C29.5169 56.5685 29.4245 56.661 29.2858 56.7072C29.4707 56.7534 29.6556 56.8458 29.748 56.9383ZM27.8993 56.661C28.1766 56.6148 28.2691 56.6148 28.5464 56.6148C28.685 56.6148 28.8237 56.5685 28.8699 56.4761C28.9161 56.3837 28.9623 56.3375 28.9623 56.1988C28.9623 56.1064 28.9161 56.014 28.8237 55.9677C28.7312 55.9215 28.6388 55.8753 28.4539 55.9215C28.1766 55.9677 28.0842 55.9677 27.8069 55.9677C27.8531 56.245 27.8993 56.3837 27.8993 56.661ZM29.2396 57.4004C29.2396 57.1693 29.0548 57.0307 28.7312 57.0769C28.4077 57.1231 28.2691 57.1231 27.9918 57.1693C28.038 57.4466 28.038 57.6315 28.0842 57.9088C28.3615 57.8626 28.5464 57.8626 28.8237 57.8164C29.101 57.7702 29.2396 57.6315 29.2396 57.4004Z" fill="white"/>
<path d="M34.3698 57.9093C34.3236 57.2161 34.3236 56.8463 34.2773 56.1531C33.9538 56.7539 33.769 57.0312 33.4916 57.632C33.353 57.632 33.3068 57.632 33.1681 57.632C32.7984 57.0774 32.6135 56.8001 32.1976 56.2917C32.2438 56.985 32.2438 57.3085 32.29 58.0017C32.0127 58.0017 31.9203 58.0479 31.6429 58.0479C31.5505 56.8925 31.5043 56.2917 31.4581 55.1364C31.6892 55.1364 31.7816 55.0901 32.0127 55.0901C32.5211 55.7834 32.7522 56.1531 33.2606 56.8463C33.6765 56.1069 33.8614 55.7372 34.2773 54.9515C34.5084 54.9515 34.6009 54.9515 34.832 54.9053C34.8782 56.0607 34.9244 56.6615 34.9706 57.8169C34.7857 57.9093 34.6471 57.9093 34.3698 57.9093Z" fill="white"/>
<path d="M36.3109 57.6779C36.0798 57.5392 35.8487 57.4006 35.7101 57.1695C35.5714 56.9384 35.479 56.7073 35.479 56.3838C35.479 56.1065 35.5252 55.8292 35.6638 55.5982C35.8025 55.3671 35.9874 55.1822 36.2185 55.0436C36.4495 54.9049 36.7269 54.8125 37.0504 54.8125C37.3739 54.8125 37.6512 54.8587 37.8823 54.9974C38.1134 55.136 38.3445 55.3209 38.4831 55.552C38.6218 55.783 38.7142 56.0603 38.7142 56.3376C38.7142 56.6149 38.6218 56.8922 38.4831 57.1233C38.3445 57.3544 38.1596 57.5392 37.9285 57.6779C37.6974 57.8165 37.4201 57.8627 37.0966 57.909C36.8655 57.8627 36.5882 57.8165 36.3109 57.6779ZM37.605 57.1695C37.7436 57.0771 37.8361 56.9846 37.9285 56.846C38.0209 56.7073 38.0672 56.5225 38.0672 56.3376C38.0672 56.1528 38.0209 56.0141 37.9285 55.8755C37.8361 55.7368 37.7436 55.6444 37.605 55.552C37.4663 55.4595 37.2815 55.4595 37.1428 55.4595C36.9579 55.4595 36.8193 55.5057 36.6806 55.5982C36.542 55.6906 36.4495 55.783 36.3571 55.9217C36.2647 56.0603 36.2647 56.2452 36.2647 56.43C36.2647 56.6149 36.3109 56.7536 36.4033 56.8922C36.4958 57.0309 36.5882 57.1233 36.7268 57.2157C36.8655 57.3081 37.0504 57.3081 37.189 57.3081C37.3277 57.3081 37.4663 57.2619 37.605 57.1695Z" fill="white"/>
<path d="M39.8697 57.6779C39.6386 57.5392 39.4537 57.3544 39.315 57.1233C39.1764 56.8922 39.084 56.6149 39.084 56.3376C39.084 56.0603 39.1764 55.783 39.315 55.552C39.4537 55.3209 39.6386 55.136 39.9159 54.9974C40.147 54.8587 40.4243 54.8125 40.7478 54.8125C41.0251 54.8125 41.2562 54.8587 41.4411 54.9511C41.6721 55.0436 41.8108 55.1822 41.9494 55.3671C41.7646 55.5057 41.6721 55.5982 41.4873 55.7368C41.3024 55.5057 41.0251 55.3671 40.7478 55.3671C40.5629 55.3671 40.378 55.4133 40.2394 55.4595C40.1007 55.552 39.9621 55.6444 39.9159 55.783C39.8234 55.9217 39.7772 56.1065 39.7772 56.2452C39.7772 56.43 39.8234 56.5687 39.9159 56.7536C40.0083 56.8922 40.1007 57.0309 40.2394 57.0771C40.378 57.1695 40.5629 57.2157 40.7478 57.2157C41.0251 57.2157 41.3024 57.1233 41.4873 56.8922C41.6721 57.0771 41.7646 57.1233 41.9032 57.3081C41.7646 57.493 41.5797 57.5854 41.3948 57.6779C41.1637 57.7703 40.9327 57.8165 40.7016 57.8165C40.378 57.8627 40.1007 57.8165 39.8697 57.6779Z" fill="white"/>
<path d="M43.5208 56.708C43.336 56.708 43.2435 56.708 43.0587 56.708C43.0587 57.1702 43.0124 57.4013 43.0124 57.9096C42.7351 57.9096 42.5965 57.9096 42.3192 57.9096C42.3654 56.7542 42.3654 56.1534 42.4116 54.998C42.6889 54.998 42.8276 54.998 43.1049 55.0443C43.1049 55.5064 43.0587 55.7375 43.0587 56.2459C43.2435 56.2459 43.336 56.2459 43.5671 56.2459C43.8906 55.7837 44.0754 55.5526 44.399 55.0905C44.6763 55.0905 44.8611 55.0905 45.1384 55.1367C44.7225 55.6913 44.4914 55.9686 44.0754 56.5232C44.4452 57.1702 44.6301 57.4475 44.9998 58.0945C44.6763 58.0945 44.5376 58.0483 44.2141 58.0483C43.9368 57.4475 43.7981 57.2164 43.5208 56.708Z" fill="white"/>
<path d="M47.8653 56.8923C47.9577 57.0309 48.0039 57.1695 47.9577 57.3544C47.9577 57.6317 47.8191 57.8166 47.6342 57.9552C47.4031 58.0939 47.1258 58.1401 46.7561 58.0939C46.1552 58.0476 45.8779 58.0476 45.3233 58.0014C45.3695 56.846 45.4158 56.2452 45.5082 55.0898C46.0628 55.1361 46.3401 55.1361 46.8947 55.1823C47.2645 55.2285 47.4956 55.2747 47.6804 55.4596C47.8653 55.5982 47.9577 55.7831 47.9115 56.0604C47.9115 56.199 47.8653 56.3377 47.7729 56.4301C47.6804 56.5225 47.588 56.615 47.4493 56.6612C47.6342 56.6612 47.7729 56.7536 47.8653 56.8923ZM46.109 56.3377C46.3863 56.3377 46.4788 56.3839 46.7561 56.3839C46.8947 56.3839 47.0334 56.3839 47.1258 56.3377C47.2182 56.2915 47.2645 56.199 47.2645 56.0604C47.2645 55.9679 47.2182 55.8755 47.172 55.7831C47.0796 55.7369 46.9872 55.6906 46.8485 55.6444C46.5712 55.6444 46.4788 55.5982 46.2015 55.5982C46.1552 55.8755 46.109 56.0142 46.109 56.3377ZM47.3107 57.262C47.3107 57.0309 47.172 56.8923 46.8485 56.846C46.525 56.846 46.3863 56.7998 46.109 56.7998C46.109 57.0771 46.0628 57.262 46.0628 57.5393C46.3401 57.5393 46.525 57.5855 46.8023 57.5855C47.0796 57.5855 47.2645 57.4931 47.3107 57.262Z" fill="white"/>
<path d="M50.777 57.9094C50.7308 58.1404 50.7308 58.2329 50.7308 58.464C49.8064 58.3715 49.3905 58.3253 48.4661 58.2329C48.5586 57.0775 48.6048 56.4767 48.7434 55.3213C49.6678 55.4137 50.1299 55.4599 51.0081 55.5524C50.9619 55.7834 50.9619 55.8759 50.9619 56.107C50.3148 56.0607 50.0375 56.0145 49.3905 55.9683C49.3442 56.1994 49.3442 56.338 49.3442 56.6153C49.8989 56.6615 50.1762 56.7078 50.7308 56.754C50.7308 56.9851 50.6846 57.0775 50.6846 57.2623C50.1299 57.2161 49.8526 57.1699 49.298 57.1237C49.2518 57.401 49.2518 57.5396 49.2518 57.8169C49.8064 57.8169 50.1299 57.8169 50.777 57.9094Z" fill="white"/>
</g>
<defs>
<linearGradient id="paint0_linear_88_3221" x1="52.5393" y1="46.4106" x2="57.1498" y2="58.639" gradientUnits="userSpaceOnUse">
<stop stop-color="#E1DBFF"/>
<stop offset="0.9944" stop-color="#BBB3FE"/>
</linearGradient>
<linearGradient id="paint1_linear_88_3221" x1="20.5065" y1="38.5959" x2="32.1385" y2="69.4472" gradientUnits="userSpaceOnUse">
<stop stop-color="#E1DBFF"/>
<stop offset="0.9944" stop-color="#BBB3FE"/>
</linearGradient>
<clipPath id="clip0_88_3221">
<rect width="78.2" height="69" fill="white" transform="translate(0.399994)"/>
</clipPath>
</defs>
</svg>
